<svg id="Слой_1" data-name="Слой 1" xmlns="http://www.w3.org/2000/svg" viewBox="0 0 84.72 18.16"><defs><style>.cls-1{fill:#b3b3b3;}</style></defs><path class="cls-1" d="M55.54,27.22h-6.6V9.72h6.6C66.93,9.77,66.93,27.17,55.54,27.22Zm-2.13-4.07h2.13c5.57,0,5.57-9.35,0-9.35H53.41Z" transform="translate(-48.94 -9.42)"/><path class="cls-1" d="M79.73,10.4,72.56,23.22h7.25v4h-14v-.68L73,13.72h-6.5v-4H79.73Z" transform="translate(-48.94 -9.42)"/><path class="cls-1" d="M81.69,18.5c0-12.1,17.94-12.1,17.94,0S81.69,30.62,81.69,18.5Zm13.37,0a4.4,4.4,0,1,0-8.77,0A4.4,4.4,0,1,0,95.06,18.5Z" transform="translate(-48.94 -9.42)"/><path class="cls-1" d="M107.64,18.62v8.6H103V9.65h1.63l8.84,8.65V9.72h4.58V27.25h-1.6Z" transform="translate(-48.94 -9.42)"/><path class="cls-1" d="M133.43,13.72H127V16.2h6v4h-6v3.08h6.7v4H122.51V9.72h10.92Z" transform="translate(-48.94 -9.42)"/></svg>