<svg id="Слой_1" data-name="Слой 1" xmlns="http://www.w3.org/2000/svg" viewBox="0 0 101.34 27.41"><defs><style>.cls-1{fill:gray;}</style></defs><path class="cls-1" d="M60.18,14.32H51.66a.4.4,0,0,0-.4.4v4.17a.39.39,0,0,0,.4.39H55v5.18a10.13,10.13,0,0,1-2.8.25c-2.44,0-5.84-.89-5.84-8.36s3.54-8.46,6.87-8.46a13.58,13.58,0,0,1,4.9.75.4.4,0,0,0,.48-.39l.95-4a.36.36,0,0,0-.16-.31c-.32-.23-2.27-1.33-7.2-1.33C46.49,2.59,40.66,5,40.66,16.64S47.34,30,53,30a13.88,13.88,0,0,0,7.49-2c.11-.06.13-.23.13-.3v-13A.4.4,0,0,0,60.18,14.32Z" transform="translate(-40.66 -2.59)"/><path class="cls-1" d="M103.67,3.59H98.88a.4.4,0,0,0-.4.4v9.26H91V4a.4.4,0,0,0-.4-.4h-4.8a.4.4,0,0,0-.39.4V29.08a.4.4,0,0,0,.39.4h4.8a.4.4,0,0,0,.4-.4V18.35h7.47V29.08a.39.39,0,0,0,.39.4h4.81a.41.41,0,0,0,.4-.4V4A.4.4,0,0,0,103.67,3.59Z" transform="translate(-40.66 -2.59)"/><path class="cls-1" d="M66.13,4.16a3.12,3.12,0,1,0,3.1,3.12A3.1,3.1,0,0,0,66.13,4.16Z" transform="translate(-40.66 -2.59)"/><path class="cls-1" d="M68.49,11.8H63.71a.46.46,0,0,0-.42.45V28.84c0,.49.31.64.7.64h4.3c.48,0,.59-.24.59-.64V12.2A.39.39,0,0,0,68.49,11.8Z" transform="translate(-40.66 -2.59)"/><path class="cls-1" d="M122.29,11.84h-4.76a.4.4,0,0,0-.4.4V24.55a5.35,5.35,0,0,1-2.92.88c-1.72,0-2.17-.78-2.17-2.46V12.24a.4.4,0,0,0-.4-.4h-4.83a.4.4,0,0,0-.39.4V23.78c0,5,2.78,6.21,6.6,6.21a11.17,11.17,0,0,0,5.67-1.73,8.89,8.89,0,0,0,.18,1,.4.4,0,0,0,.35.22h3.07a.4.4,0,0,0,.4-.4V12.24A.4.4,0,0,0,122.29,11.84Z" transform="translate(-40.66 -2.59)"/><path class="cls-1" d="M135.29,11.28a9,9,0,0,0-4.54,1.2V4a.39.39,0,0,0-.39-.4h-4.81a.4.4,0,0,0-.4.4V29.08a.4.4,0,0,0,.4.4h3.34a.39.39,0,0,0,.34-.21,7.22,7.22,0,0,0,.21-1.16A8.58,8.58,0,0,0,135.12,30C139.49,30,142,27.76,142,20S138,11.28,135.29,11.28Zm-1.87,14.13a5.76,5.76,0,0,1-2.77-.79V16.67a6.27,6.27,0,0,1,2.46-.8c1.71-.15,3.36.37,3.36,4.45C136.47,24.63,135.73,25.48,133.42,25.41Z" transform="translate(-40.66 -2.59)"/><path class="cls-1" d="M82.73,25.32c-.21,0-.75.09-1.3.09-1.76,0-2.36-.83-2.36-1.89v-7h3.59a.4.4,0,0,0,.4-.4V12.2a.4.4,0,0,0-.4-.4H79.07V7.05c0-.18-.09-.27-.3-.27h-4.9c-.19,0-.29.08-.29.27V12l-2.63.64a.4.4,0,0,0-.28.38v3.09a.39.39,0,0,0,.39.4h2.52v7.42C73.57,29.4,77.43,30,80,30a11.29,11.29,0,0,0,2.86-.47.38.38,0,0,0,.22-.36v-3.4A.41.41,0,0,0,82.73,25.32Z" transform="translate(-40.66 -2.59)"/></svg>