<svg id="Слой_1" data-name="Слой 1" xmlns="http://www.w3.org/2000/svg" viewBox="0 0 96.35 17.97"><defs><style>.cls-1{fill:#b3b3b3;}</style></defs><path class="cls-1" d="M51.74,9.5c3.52,0,7.19,1.85,8,6.2h-4.4a3.57,3.57,0,0,0-3.64-2.1c-2.83,0-4.35,2.2-4.35,4.87,0,2.9,1.7,4.8,4.35,4.8,1.8,0,2.95-.47,3.74-2.15H51.76V17.25H60a12.71,12.71,0,0,1-.5,5.12C58.28,26,55,27.42,51.74,27.42c-4.45,0-9-3-9-9A8.67,8.67,0,0,1,51.74,9.5Z" transform="translate(-42.76 -9.5)"/><path class="cls-1" d="M71,23.3v3.92H62.14V23.3h2.22V13.62h-2V9.72h8.53v3.9h-2V23.3Z" transform="translate(-42.76 -9.5)"/><path class="cls-1" d="M72.59,13.72v-4h13v4H81.31v13.5H76.89V13.72Z" transform="translate(-42.76 -9.5)"/><path class="cls-1" d="M102.93,27.22H98.36v-7H93v7H88.39V9.72H93v6.35h5.4V9.72h4.57Z" transform="translate(-42.76 -9.5)"/><path class="cls-1" d="M116.83,21.32V9.72h4.33V21.4c0,3.85-3.38,6.07-7,6.07s-7-2.22-7-6.07V9.72h4.27v11.6c0,1.43,1.38,2.13,2.68,2.13S116.83,22.75,116.83,21.32Z" transform="translate(-42.76 -9.5)"/><path class="cls-1" d="M137,18.12a3.81,3.81,0,0,1,2.1,3.58c0,3.05-1.88,5.52-5.45,5.52h-8.2V9.72h7.47a5.37,5.37,0,0,1,5.45,5.38A4.16,4.16,0,0,1,137,18.12Zm-7.22-4.4V16.6h2.82c1.77,0,1.77-2.88,0-2.88Zm0,6.55v3h3.57c1.8,0,1.77-3,0-3Z" transform="translate(-42.76 -9.5)"/></svg>