<svg id="Слой_1" data-name="Слой 1" xmlns="http://www.w3.org/2000/svg" viewBox="0 0 68.93 17.72"><defs><style>.cls-1{fill:#b3b3b3;}</style></defs><path class="cls-1" d="M64.14,21.72l-3.2,5.5H56.11v-.68L61.76,18l-5-7.55V9.72h4.65l2.78,4.55h.12l2.8-4.55h4.62v.68l-5,7.55,5.67,8.59v.68H67.49l-3.2-5.5Z" transform="translate(-56.11 -9.5)"/><path class="cls-1" d="M86,25h-6.9l-1,2.2H73.71v-.65L81.59,9.5h1.92l7.9,17.07v.65H87ZM82.54,16.6l-2,4.6h4Z" transform="translate(-56.11 -9.5)"/><path class="cls-1" d="M101.41,15.85c8.37,0,8.37,11.34,0,11.37h-7.7V9.72h12.57v4H98.19v2.13Zm-3.22,4v3.42h3.19a1.72,1.72,0,1,0,0-3.42Z" transform="translate(-56.11 -9.5)"/><path class="cls-1" d="M111.06,27.22V9.72h7.7c8.37,0,8.37,13,0,13h-3.22v4.47Zm7.67-13.5c-1,0-2.17,0-3.19,0v5h3.19C121.18,18.72,121.33,13.75,118.73,13.72Z" transform="translate(-56.11 -9.5)"/></svg>