<svg width="70" height="24" viewBox="0 0 70 24" fill="none" xmlns="http://www.w3.org/2000/svg">
<g filter="url(#filter0_d)">
<path d="M4.20406 0.999999H6.10406V7.22H13.0641V0.999999H14.9641V15H13.0641V8.74H6.10406V15H4.20406V0.999999ZM26.2781 15.22C24.4781 15.22 23.0981 14.7867 22.1381 13.92C21.1915 13.0533 20.7181 11.7867 20.7181 10.12V5.88C20.7181 4.21333 21.1915 2.94667 22.1381 2.08C23.0981 1.21333 24.4781 0.779999 26.2781 0.779999C28.0915 0.779999 29.4715 1.21333 30.4181 2.08C31.3781 2.94667 31.8581 4.21333 31.8581 5.88V10.12C31.8581 11.7867 31.3781 13.0533 30.4181 13.92C29.4715 14.7867 28.0915 15.22 26.2781 15.22ZM26.2781 13.72C27.4648 13.72 28.3715 13.4133 28.9981 12.8C29.6381 12.1733 29.9581 11.28 29.9581 10.12V5.88C29.9581 4.72 29.6381 3.83333 28.9981 3.22C28.3715 2.59333 27.4648 2.28 26.2781 2.28C25.1048 2.28 24.1981 2.59333 23.5581 3.22C22.9315 3.83333 22.6181 4.72 22.6181 5.88V10.12C22.6181 11.28 22.9315 12.1733 23.5581 12.8C24.1981 13.4133 25.1048 13.72 26.2781 13.72ZM37.6314 0.999999H38.6914C39.4381 0.999999 40.0114 1.16 40.4114 1.48C40.8247 1.8 41.2514 2.39333 41.6914 3.26L44.0514 7.8L46.4114 3.26C46.8514 2.39333 47.2714 1.8 47.6714 1.48C48.0847 1.16 48.6647 0.999999 49.4114 0.999999H50.4714V15H48.7114V2.94C48.5381 2.95333 48.3847 3.02667 48.2514 3.16C48.1314 3.28 47.9847 3.49333 47.8114 3.8L44.0514 10.86L40.2914 3.8C40.1314 3.49333 39.9847 3.28 39.8514 3.16C39.7181 3.02667 39.5647 2.95333 39.3914 2.94V15H37.6314V0.999999ZM60.9348 15C59.3082 15 58.1148 14.6467 57.3548 13.94C56.5948 13.2333 56.2148 12.1733 56.2148 10.76V5.24C56.2148 3.82667 56.5948 2.76667 57.3548 2.06C58.1148 1.35333 59.3082 0.999999 60.9348 0.999999H65.7148V2.5H60.9348C59.9615 2.5 59.2482 2.72667 58.7948 3.18C58.3415 3.62 58.1148 4.30667 58.1148 5.24V7.24H64.7348V8.76H58.1148V10.76C58.1148 11.6933 58.3415 12.3867 58.7948 12.84C59.2482 13.28 59.9615 13.5 60.9348 13.5H65.7948V15H60.9348Z" fill="#2E2E2E"/>
</g>
<defs>
<filter id="filter0_d" x="0.204041" y="0.780029" width="69.5908" height="22.44" filterUnits="userSpaceOnUse" color-interpolation-filters="sRGB">
<feFlood flood-opacity="0" result="BackgroundImageFix"/>
<feColorMatrix in="SourceAlpha" type="matrix" values="0 0 0 0 0 0 0 0 0 0 0 0 0 0 0 0 0 0 127 0"/>
<feOffset dy="4"/>
<feGaussianBlur stdDeviation="2"/>
<feColorMatrix type="matrix" values="0 0 0 0 0 0 0 0 0 0 0 0 0 0 0 0 0 0 0.25 0"/>
<feBlend mode="normal" in2="BackgroundImageFix" result="effect1_dropShadow"/>
<feBlend mode="normal" in="SourceGraphic" in2="effect1_dropShadow" result="shape"/>
</filter>
</defs>
</svg>
