<svg xmlns="http://www.w3.org/2000/svg" viewBox="0 0 183 183"><g id="Слой_2" data-name="Слой 2"><path d="M0,0V183H183V0ZM160.11,25.91,155.93,112H134.27L129.9,25.91ZM41.62,20.48c9.32,0,15.21,6.27,15.4,14.63,0,8-6.08,14.44-15.58,14.44-9.13,0-15.21-6.46-15-14.44C26.23,26.75,32.31,20.48,41.62,20.48Zm75.43,61.76H96.34v33.63c0,11.21,2.66,16.34,11.4,16.34a47.17,47.17,0,0,0,8.55-.76l.19,21.85c-3.8,1.52-10.64,2.47-18.81,2.47-9.31,0-17.1-3.23-21.66-8-5.32-5.51-8-14.44-8-27.55v-38h-12v71.63H27.19V61H68V40.81l28.31-6.46V61h20.71Zm28.05,73.83c-10.26,0-17.1-7.41-17.1-17.29,0-10.07,7-17.29,17.1-17.29s16.72,7.22,16.91,17.29C162,148.66,155.36,156.07,145.1,156.07Z"/></g></svg>