<svg id="Слой_1" data-name="Слой 1" xmlns="http://www.w3.org/2000/svg" viewBox="0 0 183 183"><defs><style>.cls-1{fill:#fff;}</style></defs><path class="cls-1" d="M0,0V183H183V0ZM156.84,26.76l-4.14,85.17H131.27l-4.33-85.17ZM40.71,20.5c9.21,0,15,6.2,15.23,14.48,0,7.89-6,14.28-15.42,14.28-9,0-15-6.39-14.85-14.28C25.48,26.7,31.5,20.5,40.71,20.5Zm74.63,61.1H94.85v33.28c0,11.09,2.63,16.17,11.28,16.17a46.23,46.23,0,0,0,8.46-.76l.19,21.62c-3.76,1.51-10.53,2.45-18.61,2.45-9.21,0-16.92-3.2-21.43-7.9-5.27-5.45-7.9-14.29-7.9-27.26V81.6H55v70.88H26.42V60.54H66.84V40.62l28-6.4V60.54h20.49ZM142,155.54c-10.15,0-16.92-7.33-16.92-17.11,0-10,7-17.1,16.92-17.1s16.55,7.14,16.74,17.1C158.72,148.21,152.14,155.54,142,155.54Z"/></svg>