<svg width="267" height="54" viewBox="0 0 267 54" fill="none" xmlns="http://www.w3.org/2000/svg">
<g opacity="0.95" filter="url(#filter0_d)">
<path d="M10.1291 44.7656C8.91031 44.7969 7.91031 44.5781 7.12906 44.1094C6.31656 43.6406 5.69156 42.9531 5.25406 42.0469C4.78531 41.1719 4.48843 40.0938 4.36343 38.8125C4.23843 37.5625 4.23843 36.1875 4.36343 34.6875C4.51968 33.5312 4.80093 32.3281 5.20718 31.0781C5.55093 30.0156 6.08218 28.8438 6.80093 27.5625C7.48843 26.2812 8.42593 25.0312 9.61343 23.8125C9.86343 23.875 10.0666 23.9531 10.2228 24.0469C10.3791 24.1094 10.5041 24.1875 10.5978 24.2812C10.6916 24.4062 10.7541 24.5156 10.7853 24.6094C10.8478 24.9531 10.7541 25.3438 10.5041 25.7812C10.2541 26.2188 10.0041 26.6875 9.75406 27.1875C9.06656 28.625 8.55093 29.9844 8.20718 31.2656C7.86343 32.5469 7.64468 33.7344 7.55093 34.8281C7.48843 35.7656 7.50406 36.6094 7.59781 37.3594C7.66031 38.1406 7.76968 38.7969 7.92593 39.3281C8.08218 39.8906 8.25406 40.3125 8.44156 40.5938C8.62906 40.9062 8.80093 41.0625 8.95718 41.0625C9.11343 41.0625 9.26968 40.9531 9.42593 40.7344C9.61343 40.5156 9.78531 40.25 9.94156 39.9375C10.1291 39.625 10.3478 39.1406 10.5978 38.4844C10.8478 37.8594 11.1134 37.125 11.3947 36.2812C11.6759 35.4375 11.9416 34.5312 12.1916 33.5625C12.4728 32.5625 12.7228 31.5625 12.9416 30.5625C13.3791 28.5625 13.8478 26.3125 14.3478 23.8125C14.8478 21.2812 15.5822 18.6406 16.5509 15.8906C16.8634 14.7344 17.2541 13.4688 17.7228 12.0938C18.0978 10.9062 18.5666 9.53125 19.1291 7.96875C19.7228 6.375 20.3947 4.65625 21.1447 2.8125C21.1447 2.65625 21.2697 2.51562 21.5197 2.39062C21.8009 2.23437 22.1134 2.07813 22.4572 1.92188C22.8322 1.76562 23.2541 1.60938 23.7228 1.45312C24.3478 1.23438 24.8322 1.10937 25.1759 1.07812C25.5509 1.04688 25.8322 1.09375 26.0197 1.21875C26.2072 1.34375 26.3322 1.51563 26.3947 1.73438C26.4572 1.92188 26.4884 2.14062 26.4884 2.39062C26.5509 3.42188 26.5822 4.39062 26.5822 5.29688C26.6134 6.20313 26.6447 7 26.6759 7.6875C26.7072 8.5 26.7228 9.23438 26.7228 9.89062C26.7541 10.7656 26.7072 11.9375 26.5822 13.4062C26.4572 14.8438 26.3166 16.3594 26.1603 17.9531C26.0353 19.5469 25.9103 21.1094 25.7853 22.6406C25.6916 24.1406 25.6759 25.3906 25.7384 26.3906C25.7384 26.9219 25.7541 27.4219 25.7853 27.8906C25.8478 28.3281 25.9103 28.7656 25.9728 29.2031C26.3791 28.0781 26.8322 26.9062 27.3322 25.6875C27.8322 24.4375 28.3322 23.25 28.8322 22.125C29.3322 20.9688 29.8009 19.9062 30.2384 18.9375C30.6759 17.9375 31.0197 17.1094 31.2697 16.4531C31.6447 15.5781 32.1447 14.4688 32.7697 13.125C33.3947 11.7812 34.0197 10.4375 34.6447 9.09375C35.3009 7.75 35.8947 6.51562 36.4259 5.39062C36.9884 4.26562 37.3947 3.48438 37.6447 3.04688C37.8322 2.73438 38.1447 2.45313 38.5822 2.20312C39.0509 1.95312 39.5353 1.73438 40.0353 1.54688C40.5666 1.35938 41.0509 1.23438 41.4884 1.17188C41.9572 1.07812 42.2697 1.0625 42.4259 1.125C42.8322 1.21875 43.1134 1.34375 43.2697 1.5C43.4572 1.65625 43.5666 1.76562 43.5978 1.82812C43.6603 1.95312 43.7072 2.17188 43.7384 2.48438C43.7697 2.76562 43.7541 3.21875 43.6916 3.84375C43.6291 4.59375 43.4416 5.73438 43.1291 7.26562C42.8478 8.79688 42.4884 10.5469 42.0509 12.5156C41.6447 14.4531 41.1916 16.5312 40.6916 18.75C40.2228 20.9688 39.7697 23.1562 39.3322 25.3125C38.8947 27.4375 38.5041 29.4375 38.1603 31.3125C37.8478 33.1875 37.6447 34.7656 37.5509 36.0469C37.4884 37.4844 37.5822 38.75 37.8322 39.8438C37.9259 40.3125 38.0666 40.7656 38.2541 41.2031C38.4416 41.6406 38.6916 42.0156 39.0041 42.3281C39.3166 42.6719 39.6916 42.9219 40.1291 43.0781C40.5666 43.2344 41.0822 43.2812 41.6759 43.2188C40.8947 43.75 40.1291 44.1406 39.3791 44.3906C38.6291 44.6406 37.8947 44.7656 37.1759 44.7656C36.3947 44.7969 35.7072 44.6719 35.1134 44.3906C34.5197 44.1406 34.0197 43.7656 33.6134 43.2656C33.2072 42.7969 32.9103 42.2188 32.7228 41.5312C32.5353 40.875 32.4728 40.1406 32.5353 39.3281C32.5978 38.5781 32.8009 37.3438 33.1447 35.625C33.4884 33.9062 33.8947 31.9688 34.3634 29.8125C34.8634 27.625 35.3947 25.3594 35.9572 23.0156C36.5509 20.6406 37.0978 18.4219 37.5978 16.3594C38.1291 14.2656 38.5822 12.4688 38.9572 10.9688C39.3322 9.46875 39.5666 8.48438 39.6603 8.01562C39.7228 7.64062 39.7697 7.29688 39.8009 6.98438C39.8634 6.64062 39.9259 6.34375 39.9884 6.09375C39.6759 6.71875 39.2853 7.46875 38.8166 8.34375C38.3791 9.21875 37.9103 10.1562 37.4103 11.1562C36.9103 12.1562 36.3947 13.2031 35.8634 14.2969C35.3634 15.3594 34.8791 16.3906 34.4103 17.3906C33.6291 19.0156 32.8634 20.6875 32.1134 22.4062C31.3634 24.0938 30.6916 25.7031 30.0978 27.2344C29.5041 28.7656 29.0041 30.1406 28.5978 31.3594C28.2228 32.5781 28.0041 33.5156 27.9416 34.1719V34.8281C27.9416 35.0156 27.9416 35.2344 27.9416 35.4844C27.9728 35.7344 28.0197 35.9688 28.0822 36.1875L26.2072 37.6406C25.9259 37.7344 25.6759 37.8125 25.4572 37.875C25.2697 37.9375 25.0822 37.9688 24.8947 37.9688C24.1759 37.9688 23.6291 37.5938 23.2541 36.8438C22.8791 36.1562 22.5353 34.8125 22.2228 32.8125C21.9103 30.8125 21.8166 28.3594 21.9416 25.4531C22.0041 24.0156 22.0978 22.5625 22.2228 21.0938C22.3791 19.625 22.5197 18.2188 22.6447 16.875C22.8009 15.5312 22.9416 14.2812 23.0666 13.125C23.1916 11.9375 23.2541 10.9219 23.2541 10.0781C23.2853 9.45312 23.2697 8.89062 23.2072 8.39062C23.1447 7.85938 23.0822 7.375 23.0197 6.9375C22.7384 7.65625 22.4259 8.64062 22.0822 9.89062C21.7384 11.1094 21.3791 12.4688 21.0041 13.9688C20.6291 15.4688 20.2384 17.0469 19.8322 18.7031C19.4572 20.3594 19.0822 21.9531 18.7072 23.4844C18.3634 25.0156 18.0353 26.4375 17.7228 27.75C17.4103 29.0312 17.1603 30.0625 16.9728 30.8438C16.6603 32.0938 16.3478 33.5156 16.0353 35.1094C15.7228 36.7031 15.3322 38.2031 14.8634 39.6094C14.3947 41.0469 13.7853 42.25 13.0353 43.2188C12.2853 44.2188 11.3166 44.7344 10.1291 44.7656ZM74.7809 26.6719C74.3434 27.2969 73.7809 28.0781 73.0934 29.0156C72.4059 29.9219 71.6872 30.8438 70.9372 31.7812C70.2184 32.6875 69.4997 33.5312 68.7809 34.3125C68.0934 35.0625 67.5153 35.5938 67.0466 35.9062C66.7341 36.0938 66.3747 36.25 65.9684 36.375C65.5622 36.5 65.1403 36.5781 64.7028 36.6094C64.2966 36.6406 63.9059 36.6094 63.5309 36.5156C63.1559 36.4531 62.8278 36.3281 62.5466 36.1406C62.2653 35.9219 62.0309 35.6094 61.8434 35.2031C61.6872 34.8594 61.5309 34.4062 61.3747 33.8438C61.2497 33.2812 61.2028 32.5781 61.2341 31.7344C60.4841 32.9844 59.6559 33.9531 58.7497 34.6406C57.8434 35.2969 56.9841 35.7812 56.1716 36.0938C55.2341 36.4375 54.2966 36.6406 53.3591 36.7031C52.9216 36.7031 52.4528 36.5469 51.9528 36.2344C51.4528 35.9531 51.0309 35.5 50.6872 34.875C50.3434 34.2188 50.1247 33.3906 50.0309 32.3906C49.9372 31.3594 50.0622 30.1406 50.4059 28.7344C50.8434 26.8281 51.5309 25.0938 52.4684 23.5312C53.4372 21.9688 54.4841 20.6406 55.6091 19.5469C56.7341 18.4219 57.8434 17.5781 58.9372 17.0156C60.0309 16.4531 60.9372 16.2031 61.6559 16.2656C62.4997 16.4219 63.1872 16.6719 63.7184 17.0156C64.1559 17.3281 64.4372 17.7969 64.5622 18.4219C64.7184 19.0156 64.4684 19.8125 63.8122 20.8125C64.2497 20.7188 64.6091 20.6562 64.8903 20.625C65.2028 20.5938 65.4372 20.5781 65.5934 20.5781C65.7809 20.5781 65.9059 20.5938 65.9684 20.625C65.9997 20.6875 66.0153 20.8281 66.0153 21.0469C66.0153 21.2344 65.9684 21.5938 65.8747 22.125C65.7809 22.6562 65.6403 23.375 65.4528 24.2812C65.2653 25.1875 65.0153 26.3594 64.7028 27.7969C64.6403 28.0781 64.5778 28.3438 64.5153 28.5938C64.4841 28.8125 64.4372 29.0469 64.3747 29.2969C64.3434 29.5156 64.2966 29.7812 64.2341 30.0938C64.1716 30.4062 64.0934 30.7969 63.9997 31.2656C63.9684 31.5469 63.9528 31.8594 63.9528 32.2031C63.9841 32.5156 64.0466 32.8125 64.1403 33.0938C64.2341 33.375 64.3747 33.6094 64.5622 33.7969C64.7809 33.9531 65.0778 34.0312 65.4528 34.0312C65.7653 34.0312 66.1716 33.8438 66.6716 33.4688C67.1716 33.0625 67.7028 32.5625 68.2653 31.9688C68.8278 31.3438 69.4059 30.6719 69.9997 29.9531C70.6247 29.2031 71.2028 28.4844 71.7341 27.7969C72.2653 27.1094 72.7341 26.5 73.1403 25.9688C73.5778 25.4375 73.8903 25.0469 74.0778 24.7969C74.3278 24.5156 74.5778 24.3594 74.8278 24.3281C75.0778 24.2656 75.2653 24.3281 75.3903 24.5156C75.5153 24.7031 75.5309 24.9844 75.4372 25.3594C75.3747 25.7344 75.1559 26.1719 74.7809 26.6719ZM61.0466 28.7344C61.2028 28.1094 61.3903 27.375 61.6091 26.5312C61.8278 25.6875 62.0153 24.875 62.1716 24.0938C62.3278 23.3125 62.4372 22.6719 62.4997 22.1719C62.5934 21.6406 62.5778 21.3906 62.4528 21.4219C62.2966 21.4531 62.1247 21.5 61.9372 21.5625C61.7809 21.625 61.5778 21.6719 61.3278 21.7031C61.0778 21.7344 60.8278 21.7812 60.5778 21.8438C60.8278 21.3438 60.9684 20.9375 60.9997 20.625C61.0622 20.2812 61.0778 20.0156 61.0466 19.8281C61.0153 19.6094 60.9528 19.4375 60.8591 19.3125C60.5153 19.0312 59.9059 19.2656 59.0309 20.0156C58.1872 20.7344 57.2028 22.0781 56.0778 24.0469C55.6091 24.8594 55.2341 25.7344 54.9528 26.6719C54.6716 27.5781 54.4684 28.4375 54.3434 29.25C54.2497 30.0625 54.2341 30.7812 54.2966 31.4062C54.3591 32 54.4841 32.3906 54.6716 32.5781C55.0153 32.9219 55.4059 33.0938 55.8434 33.0938C56.2809 33.0625 56.7184 32.9375 57.1559 32.7188C57.6247 32.4688 58.0778 32.1562 58.5153 31.7812C58.9841 31.4062 59.3903 31.0156 59.7341 30.6094C60.1091 30.2031 60.4059 29.8281 60.6247 29.4844C60.8747 29.1406 61.0153 28.8906 61.0466 28.7344ZM98.6047 29.8125C97.2922 31.4688 96.1203 32.7812 95.0891 33.75C94.0891 34.6875 93.1984 35.3906 92.4172 35.8594C91.6359 36.3281 90.9484 36.625 90.3547 36.75C89.7609 36.875 89.2297 36.9375 88.7609 36.9375C88.1672 36.9375 87.6672 36.7969 87.2609 36.5156C86.8547 36.2344 86.5109 35.8906 86.2297 35.4844C85.9484 35.0781 85.7297 34.6562 85.5734 34.2188C85.4172 33.7812 85.2922 33.4062 85.1984 33.0938C85.0734 32.75 84.9328 32.3594 84.7766 31.9219C84.6516 31.4844 84.5109 31 84.3547 30.4688C83.7297 31.125 83.0734 31.8281 82.3859 32.5781C81.7922 33.2031 81.1203 33.9219 80.3703 34.7344C79.6203 35.5156 78.8547 36.3125 78.0734 37.125C77.7922 37.1875 77.5422 37.1875 77.3234 37.125C77.1047 37.0625 76.9172 37 76.7609 36.9375C76.5734 36.8438 76.4172 36.7344 76.2922 36.6094C76.1984 36.5156 76.1047 36.4062 76.0109 36.2812C75.9484 36.1875 75.8859 36.0781 75.8234 35.9531C75.7297 35.7969 75.6984 35.6406 75.7297 35.4844C76.6359 34.4531 77.5266 33.4375 78.4016 32.4375C79.3078 31.4062 80.1203 30.4844 80.8391 29.6719C81.6516 28.7344 82.4328 27.8281 83.1828 26.9531C82.7453 25.7656 82.3547 24.6562 82.0109 23.625C81.6672 22.5938 81.4172 21.8594 81.2609 21.4219C80.9484 20.5156 80.6672 19.7656 80.4172 19.1719C80.1984 18.5781 79.8078 18.1562 79.2453 17.9062C79.6203 17.5625 79.9797 17.2969 80.3234 17.1094C80.6984 16.8906 81.0266 16.7344 81.3078 16.6406C81.6516 16.5156 81.9484 16.4531 82.1984 16.4531C82.9172 16.4531 83.5422 17.0938 84.0734 18.375C84.6359 19.625 85.1984 21.3594 85.7609 23.5781C85.7609 23.6719 85.7922 23.7812 85.8547 23.9062C86.5109 23.125 87.1359 22.3906 87.7297 21.7031C88.3547 21.0156 88.8859 20.4062 89.3234 19.875C89.7922 19.3438 90.1672 18.9219 90.4484 18.6094C90.7297 18.2969 90.9016 18.1094 90.9641 18.0469C91.5891 17.3281 92.1516 16.9219 92.6516 16.8281C93.1516 16.7344 93.6047 16.8438 94.0109 17.1562C94.1984 17.2812 94.4016 17.4062 94.6203 17.5312C95.0266 17.7812 95.5109 18.0156 96.0734 18.2344C95.5422 18.7344 94.9484 19.3125 94.2922 19.9688C93.6672 20.5938 93.0734 21.2031 92.5109 21.7969C91.8547 22.4844 91.1984 23.1719 90.5422 23.8594C90.0734 24.3281 89.5109 24.9062 88.8547 25.5938C88.2297 26.2812 87.5578 27.0312 86.8391 27.8438C87.0578 28.625 87.2922 29.3594 87.5422 30.0469C87.7922 30.7344 88.0422 31.3438 88.2922 31.875C88.5734 32.4062 88.8547 32.8281 89.1359 33.1406C89.4172 33.4531 89.7141 33.6094 90.0266 33.6094C90.5266 33.6094 91.0891 33.4844 91.7141 33.2344C92.3391 32.9531 92.9953 32.5781 93.6828 32.1094C94.3703 31.6406 95.0578 31.0938 95.7453 30.4688C96.4641 29.8438 97.1672 29.1875 97.8547 28.5C98.1047 28.25 98.3391 28.1094 98.5578 28.0781C98.8078 28.0469 98.9797 28.0938 99.0734 28.2188C99.1672 28.3438 99.1828 28.5469 99.1203 28.8281C99.0891 29.1094 98.9172 29.4375 98.6047 29.8125ZM120.975 14.4844C120.944 14.3906 121.038 14.1562 121.257 13.7812C121.475 13.375 121.71 12.8906 121.96 12.3281C122.241 11.7344 122.507 11.0781 122.757 10.3594C123.038 9.60938 123.225 8.84375 123.319 8.0625C123.444 7.28125 123.444 6.5 123.319 5.71875C123.194 4.9375 122.866 4.1875 122.335 3.46875C122.022 3.09375 121.553 2.89062 120.928 2.85938C120.335 2.79687 119.647 2.89062 118.866 3.14062C118.116 3.35937 117.319 3.71875 116.475 4.21875C115.663 4.6875 114.913 5.25 114.225 5.90625C113.538 6.53125 112.944 7.23438 112.444 8.01562C111.975 8.79688 111.71 9.59375 111.647 10.4062C111.585 11.0625 111.6 11.6719 111.694 12.2344C111.819 12.7969 111.975 13.3125 112.163 13.7812C112.35 14.25 112.553 14.6875 112.772 15.0938C112.991 15.5 113.194 15.8594 113.382 16.1719C113.632 16.6094 114.022 17.0938 114.553 17.625C115.085 18.1562 115.663 18.7656 116.288 19.4531C116.913 20.1094 117.538 20.8594 118.163 21.7031C118.788 22.5469 119.335 23.5 119.803 24.5625C120.272 25.625 120.6 26.8125 120.788 28.125C120.975 29.4375 120.96 30.8906 120.741 32.4844C120.397 34.7969 119.85 36.7188 119.1 38.25C118.35 39.8125 117.522 41.0625 116.616 42C115.741 42.9375 114.85 43.6094 113.944 44.0156C113.038 44.4531 112.288 44.7344 111.694 44.8594C111.225 44.9531 110.663 45.0312 110.007 45.0938C109.382 45.1875 108.71 45.1719 107.991 45.0469C107.303 44.9531 106.6 44.7344 105.882 44.3906C105.163 44.0781 104.522 43.5781 103.96 42.8906C103.303 42.1094 102.788 41.2656 102.413 40.3594C102.069 39.5781 101.819 38.6719 101.663 37.6406C101.475 36.6406 101.553 35.5938 101.897 34.5C102.147 34.2188 102.413 33.9688 102.694 33.75C102.975 33.5312 103.257 33.3438 103.538 33.1875C103.85 33 104.178 32.8281 104.522 32.6719C104.928 32.5469 105.335 32.4375 105.741 32.3438C106.085 32.2812 106.444 32.25 106.819 32.25C107.225 32.2188 107.6 32.2656 107.944 32.3906C107.475 32.9219 107.147 33.4219 106.96 33.8906C106.835 34.1406 106.741 34.3594 106.678 34.5469C106.553 35.1406 106.507 35.8438 106.538 36.6562C106.6 37.5 106.772 38.2969 107.053 39.0469C107.366 39.8281 107.803 40.4844 108.366 41.0156C108.928 41.5781 109.678 41.875 110.616 41.9062C112.897 41.9688 114.835 40.1875 116.428 36.5625C116.96 35.4375 117.225 34.2969 117.225 33.1406C117.257 31.9844 117.116 30.875 116.803 29.8125C116.522 28.75 116.132 27.7656 115.632 26.8594C115.163 25.9219 114.678 25.125 114.178 24.4688C113.678 23.8125 113.069 23.1094 112.35 22.3594C111.663 21.5781 110.975 20.7344 110.288 19.8281C109.6 18.9219 108.975 17.9375 108.413 16.875C107.882 15.8125 107.522 14.6562 107.335 13.4062C107.085 11.6562 107.241 10.0625 107.803 8.625C108.397 7.15625 109.178 5.875 110.147 4.78125C111.147 3.6875 112.225 2.79687 113.382 2.10938C114.569 1.42188 115.616 0.984375 116.522 0.796875C121.553 -0.203125 124.85 0.640625 126.413 3.32812C127.069 4.35938 127.428 5.45313 127.491 6.60938C127.553 7.76562 127.475 8.84375 127.257 9.84375C127.069 10.8125 126.819 11.6406 126.507 12.3281C126.225 12.9844 126.038 13.3438 125.944 13.4062C125.757 13.5938 125.46 13.7969 125.053 14.0156C124.647 14.2344 123.991 14.4375 123.085 14.625C122.835 14.6875 122.585 14.7188 122.335 14.7188C122.116 14.7188 121.882 14.7031 121.632 14.6719C121.382 14.6406 121.163 14.5781 120.975 14.4844ZM150.33 24.1406C150.455 23.9531 150.612 23.8438 150.799 23.8125C151.018 23.75 151.19 23.7656 151.315 23.8594C151.44 23.9531 151.502 24.1094 151.502 24.3281C151.533 24.5469 151.455 24.8438 151.268 25.2188C150.643 26.4062 149.815 27.6875 148.783 29.0625C147.783 30.4375 146.721 31.7344 145.596 32.9531C144.471 34.1406 143.377 35.125 142.315 35.9062C141.252 36.6875 140.362 37.0781 139.643 37.0781C138.612 37.0781 137.752 36.875 137.065 36.4688C136.377 36.0625 135.83 35.5625 135.424 34.9688C135.049 34.375 134.783 33.7344 134.627 33.0469C134.471 32.3281 134.424 31.6719 134.487 31.0781C134.518 30.5781 134.627 29.6875 134.815 28.4062C135.002 27.0938 135.252 25.5938 135.565 23.9062C135.877 22.1875 136.221 20.3594 136.596 18.4219C137.002 16.4531 137.424 14.5625 137.862 12.75C137.33 12.8125 136.799 12.875 136.268 12.9375C135.737 13 135.252 13.0312 134.815 13.0312C133.815 13.0312 132.877 12.9219 132.002 12.7031C131.096 12.4531 130.424 12.2188 129.987 12C129.737 11.875 129.627 11.7031 129.658 11.4844C129.69 11.2344 129.783 11 129.94 10.7812C130.096 10.5312 130.299 10.3281 130.549 10.1719C130.768 9.98438 130.971 9.89062 131.158 9.89062C131.752 9.95312 132.393 10.0156 133.08 10.0781C133.768 10.1094 134.518 10.1094 135.33 10.0781C135.924 10.0469 136.487 10 137.018 9.9375C137.58 9.875 138.127 9.79688 138.658 9.70312C139.065 8.20312 139.455 6.90625 139.83 5.8125C140.237 4.6875 140.596 3.90625 140.908 3.46875C141.002 3.3125 141.205 3.1875 141.518 3.09375C141.862 2.96875 142.221 2.89062 142.596 2.85938C142.971 2.79687 143.33 2.79687 143.674 2.85938C144.018 2.89062 144.268 3 144.424 3.1875C144.58 3.4375 144.643 4.07812 144.612 5.10938C144.58 6.14062 144.408 7.45312 144.096 9.04688C145.408 9.04688 146.565 9.125 147.565 9.28125C148.596 9.40625 149.471 9.5625 150.19 9.75C150.908 9.90625 151.487 10.0781 151.924 10.2656C152.362 10.4219 152.69 10.5312 152.908 10.5938C153.127 10.6562 153.237 10.8125 153.237 11.0625C153.268 11.3125 153.221 11.5781 153.096 11.8594C153.002 12.1094 152.83 12.3281 152.58 12.5156C152.33 12.7031 152.049 12.7656 151.737 12.7031C151.424 12.6719 151.065 12.6094 150.658 12.5156C150.283 12.4219 149.815 12.3438 149.252 12.2812C148.721 12.2188 148.08 12.1562 147.33 12.0938C146.58 12.0312 145.705 12 144.705 12C144.518 12 144.299 12.0156 144.049 12.0469C143.83 12.0469 143.596 12.0469 143.346 12.0469C143.221 12.5469 143.096 13.0469 142.971 13.5469C142.877 14.0156 142.737 14.5156 142.549 15.0469C142.143 16.2969 141.674 17.6562 141.143 19.125C140.674 20.4062 140.112 21.875 139.455 23.5312C138.799 25.1875 138.065 26.9531 137.252 28.8281C137.065 30.1719 137.08 31.2031 137.299 31.9219C137.549 32.6094 137.846 33.1094 138.19 33.4219C138.596 33.7656 139.096 33.9531 139.69 33.9844C140.158 34.0469 140.721 33.8906 141.377 33.5156C142.065 33.1094 142.768 32.5781 143.487 31.9219C144.205 31.2656 144.924 30.5469 145.643 29.7656C146.393 28.9844 147.08 28.2188 147.705 27.4688C148.33 26.7188 148.877 26.0469 149.346 25.4531C149.815 24.8281 150.143 24.3906 150.33 24.1406ZM159.81 36.75C158.623 36.75 157.654 36.5625 156.904 36.1875C156.154 35.8125 155.56 35.3594 155.123 34.8281C154.717 34.2656 154.42 33.6719 154.232 33.0469C154.076 32.3906 153.998 31.7969 153.998 31.2656C153.998 30.3281 154.076 29.3438 154.232 28.3125C154.388 27.25 154.576 26.2812 154.795 25.4062C155.013 24.5 155.201 23.7344 155.357 23.1094C155.545 22.4844 155.67 22.0938 155.732 21.9375C156.013 21.0312 156.373 20.25 156.81 19.5938C157.279 18.9062 157.92 18.4375 158.732 18.1875C159.045 18.125 159.373 18.0625 159.717 18C159.998 17.9688 160.279 17.9531 160.56 17.9531C160.873 17.9531 161.154 18 161.404 18.0938C160.56 20.25 159.888 22.0469 159.388 23.4844C158.92 24.9219 158.56 26.0938 158.31 27C158.029 28.0312 157.857 28.8594 157.795 29.4844C157.638 30.8906 157.763 31.9531 158.17 32.6719C158.576 33.3906 159.404 33.75 160.654 33.75C161.467 33.75 162.248 33.4531 162.998 32.8594C163.748 32.2344 164.435 31.4375 165.06 30.4688C164.967 29.9688 164.92 29.4531 164.92 28.9219C164.92 27.9219 164.998 26.9531 165.154 26.0156C165.342 25.0469 165.545 24.1562 165.763 23.3438C166.013 22.5 166.263 21.75 166.513 21.0938C166.795 20.4375 167.029 19.9219 167.217 19.5469C167.56 18.7969 167.873 18.3438 168.154 18.1875C168.435 18 168.888 17.8906 169.513 17.8594C169.763 17.8281 169.967 17.8281 170.123 17.8594C170.31 17.8594 170.467 17.875 170.592 17.9062C170.967 18 171.154 18.1875 171.154 18.4688C171.154 18.9688 171.123 19.7188 171.06 20.7188C170.998 21.7188 170.81 22.75 170.498 23.8125C170.279 24.6875 170.06 25.4375 169.842 26.0625C169.654 26.6562 169.467 27.1719 169.279 27.6094C169.092 28.0156 168.904 28.3594 168.717 28.6406C168.529 28.8906 168.357 29.125 168.201 29.3438C168.263 30.2812 168.342 31.0312 168.435 31.5938C168.529 32.1562 168.638 32.5938 168.763 32.9062C168.92 33.1875 169.092 33.3906 169.279 33.5156C169.498 33.6094 169.732 33.6562 169.982 33.6562C170.42 33.6562 170.935 33.4531 171.529 33.0469C172.123 32.6094 172.732 32.0781 173.357 31.4531C174.013 30.7969 174.654 30.0938 175.279 29.3438C175.935 28.5625 176.529 27.8281 177.06 27.1406C177.592 26.4531 178.045 25.8594 178.42 25.3594C178.795 24.8281 179.029 24.5 179.123 24.375C179.342 24.0938 179.545 23.9219 179.732 23.8594C179.951 23.7969 180.123 23.8281 180.248 23.9531C180.373 24.0469 180.435 24.2188 180.435 24.4688C180.467 24.6875 180.404 24.9375 180.248 25.2188C179.623 26.4062 178.842 27.6719 177.904 29.0156C176.998 30.3281 176.013 31.5469 174.951 32.6719C173.92 33.7969 172.873 34.7344 171.81 35.4844C170.748 36.2344 169.748 36.6094 168.81 36.6094C167.967 36.6094 167.295 36.3281 166.795 35.7656C166.326 35.1719 165.92 34.3281 165.576 33.2344C164.857 34.3594 164.013 35.2344 163.045 35.8594C162.076 36.4531 160.998 36.75 159.81 36.75ZM197.884 27.0469C197.728 28.0156 197.572 28.9375 197.415 29.8125C197.29 30.6875 197.212 31.3906 197.181 31.9219C197.15 32.7031 197.29 33.2656 197.603 33.6094C197.915 33.9531 198.259 34.125 198.634 34.125C199.072 34.125 199.603 33.9062 200.228 33.4688C200.884 33.0312 201.572 32.4844 202.29 31.8281C203.009 31.1719 203.728 30.4531 204.447 29.6719C205.165 28.8906 205.822 28.1562 206.415 27.4688C207.04 26.75 207.556 26.125 207.962 25.5938C208.4 25.0625 208.697 24.7188 208.853 24.5625C209.04 24.375 209.228 24.2656 209.415 24.2344C209.634 24.2031 209.806 24.2344 209.931 24.3281C210.056 24.4219 210.118 24.5938 210.118 24.8438C210.118 25.0938 209.993 25.4062 209.743 25.7812C209.368 26.375 208.884 27.0781 208.29 27.8906C207.697 28.6719 207.04 29.4844 206.322 30.3281C205.603 31.1719 204.837 32 204.025 32.8125C203.243 33.625 202.447 34.3438 201.634 34.9688C200.853 35.5938 200.087 36.0938 199.337 36.4688C198.618 36.875 197.962 37.0781 197.368 37.0781C196.931 37.0781 196.509 36.9531 196.103 36.7031C195.728 36.4531 195.384 36.125 195.072 35.7188C194.759 35.3125 194.509 34.8594 194.322 34.3594C194.165 33.8594 194.103 33.3594 194.134 32.8594C194.165 32.6406 194.212 32.2656 194.275 31.7344C192.962 33.2031 191.634 34.375 190.29 35.25C188.978 36.0938 187.712 36.5156 186.493 36.5156C186.056 36.5156 185.587 36.4062 185.087 36.1875C184.587 35.9688 184.134 35.6094 183.728 35.1094C183.353 34.6094 183.04 33.9531 182.79 33.1406C182.54 32.3281 182.447 31.3438 182.509 30.1875C182.603 28.375 182.962 26.6562 183.587 25.0312C184.212 23.4062 184.993 22 185.931 20.8125C186.9 19.5938 187.978 18.6406 189.165 17.9531C190.384 17.2344 191.603 16.875 192.822 16.875C193.353 16.875 193.837 17.0156 194.275 17.2969C194.712 17.5469 195.087 17.8906 195.4 18.3281C195.712 18.7344 195.962 19.1875 196.15 19.6875C196.368 20.1875 196.525 20.6562 196.618 21.0938C196.837 20.1875 197.04 19.2969 197.228 18.4219C197.415 17.5469 197.603 16.7188 197.79 15.9375C198.103 14.7812 198.431 13.5312 198.775 12.1875C199.087 11.0312 199.447 9.70312 199.853 8.20312C200.259 6.70312 200.712 5.125 201.212 3.46875C201.525 3.21875 201.822 3.03125 202.103 2.90625C202.384 2.78125 202.65 2.6875 202.9 2.625C203.181 2.53125 203.447 2.48438 203.697 2.48438C204.009 2.48438 204.29 2.53125 204.54 2.625C204.79 2.6875 204.993 2.89062 205.15 3.23438C205.337 3.54687 205.462 4.03125 205.525 4.6875C205.587 5.34375 205.587 6.23438 205.525 7.35938C205.462 8.73438 205.212 10.2344 204.775 11.8594C204.368 13.4844 203.822 15.1719 203.134 16.9219C202.447 18.6406 201.65 20.375 200.743 22.125C199.868 23.8438 198.915 25.4844 197.884 27.0469ZM195.118 27.6562C195.243 27.0625 195.353 26.4688 195.447 25.875C195.572 25.2812 195.712 24.6719 195.868 24.0469C195.806 24.0781 195.743 24.1094 195.681 24.1406C195.65 24.1719 195.603 24.2031 195.54 24.2344C195.197 24.3906 194.962 24.3906 194.837 24.2344C194.712 24.0469 194.65 23.7656 194.65 23.3906C194.65 23.2031 194.634 22.875 194.603 22.4062C194.572 21.9062 194.478 21.4062 194.322 20.9062C194.197 20.375 193.993 19.9219 193.712 19.5469C193.431 19.1406 193.04 18.9375 192.54 18.9375C191.822 18.9375 191.087 19.3125 190.337 20.0625C189.587 20.7812 188.884 21.6719 188.228 22.7344C187.572 23.7656 187.025 24.875 186.587 26.0625C186.15 27.25 185.9 28.3125 185.837 29.25C185.775 30.75 185.962 31.8281 186.4 32.4844C186.837 33.1406 187.431 33.4688 188.181 33.4688C188.743 33.4688 189.353 33.25 190.009 32.8125C190.697 32.375 191.353 31.8438 191.978 31.2188C192.634 30.5938 193.228 29.9531 193.759 29.2969C194.322 28.6406 194.775 28.0938 195.118 27.6562ZM222.973 8.39062C222.88 8.73438 222.692 9.07812 222.411 9.42188C222.161 9.73438 221.864 10 221.52 10.2188C221.208 10.4062 220.88 10.5312 220.536 10.5938C220.192 10.6562 219.911 10.5938 219.692 10.4062C219.036 9.90625 218.692 9.375 218.661 8.8125C218.63 8.21875 218.77 7.67188 219.083 7.17188C219.395 6.64062 219.786 6.20313 220.255 5.85938C220.723 5.48438 221.13 5.26563 221.473 5.20312C221.817 5.14062 222.098 5.21875 222.317 5.4375C222.567 5.625 222.755 5.89062 222.88 6.23438C223.005 6.54687 223.067 6.90625 223.067 7.3125C223.098 7.71875 223.067 8.07812 222.973 8.39062ZM216.505 18.375C216.661 18.1875 216.958 18.0312 217.395 17.9062C217.833 17.7812 218.286 17.6875 218.755 17.625C219.223 17.5312 219.645 17.4844 220.02 17.4844C220.427 17.4531 220.661 17.4531 220.723 17.4844C220.755 17.5156 220.677 17.8438 220.489 18.4688C220.302 19.0938 220.067 19.8281 219.786 20.6719C219.505 21.5156 219.208 22.3906 218.895 23.2969C218.583 24.1719 218.348 24.8906 218.192 25.4531C218.036 26.0156 217.848 26.6562 217.63 27.375C217.411 28.0625 217.208 28.75 217.02 29.4375C216.864 30.0938 216.755 30.7188 216.692 31.3125C216.63 31.9062 216.677 32.3594 216.833 32.6719C216.989 33.0469 217.161 33.3125 217.348 33.4688C217.536 33.5938 217.739 33.6562 217.958 33.6562C218.583 33.6562 219.364 33.3125 220.302 32.625C221.27 31.9375 222.239 31.125 223.208 30.1875C224.208 29.2188 225.13 28.25 225.973 27.2812C226.817 26.2812 227.442 25.4844 227.848 24.8906C228.098 24.5781 228.348 24.375 228.598 24.2812C228.88 24.1875 229.098 24.2031 229.255 24.3281C229.442 24.4531 229.536 24.6562 229.536 24.9375C229.567 25.2188 229.473 25.5469 229.255 25.9219C228.755 26.7969 228.02 27.8438 227.052 29.0625C226.083 30.25 225.052 31.4062 223.958 32.5312C222.864 33.625 221.786 34.5625 220.723 35.3438C219.692 36.125 218.848 36.5312 218.192 36.5625C217.661 36.5938 217.13 36.5 216.598 36.2812C216.098 36.0938 215.63 35.8281 215.192 35.4844C214.786 35.1094 214.442 34.6875 214.161 34.2188C213.88 33.7188 213.723 33.2031 213.692 32.6719C213.598 31.8906 213.598 30.8281 213.692 29.4844C213.786 28.1094 213.958 26.7188 214.208 25.3125C214.458 23.875 214.77 22.5156 215.145 21.2344C215.552 19.9531 216.005 19 216.505 18.375ZM246.188 28.5469C245.875 29.7344 245.453 30.8438 244.922 31.875C244.391 32.9062 243.75 33.7969 243 34.5469C242.282 35.2969 241.453 35.875 240.516 36.2812C239.61 36.7188 238.61 36.9375 237.516 36.9375C236.235 36.9375 235.219 36.6562 234.469 36.0938C233.75 35.5625 233.203 34.8906 232.828 34.0781C232.485 33.2656 232.282 32.375 232.219 31.4062C232.125 30.4375 232.078 29.5312 232.078 28.6875C232.078 28.0938 232.157 27.4375 232.313 26.7188C232.438 26 232.625 25.2656 232.875 24.5156C233.125 23.7656 233.438 23.0156 233.813 22.2656C234.219 21.5156 234.688 20.8281 235.219 20.2031C235.407 19.6719 235.688 19.2031 236.063 18.7969C236.469 18.3906 236.922 18.0625 237.422 17.8125C237.953 17.5312 238.516 17.3281 239.11 17.2031C239.703 17.0469 240.282 16.9688 240.844 16.9688C240.938 16.9688 241.016 16.9844 241.078 17.0156C241.172 17.0469 241.266 17.0781 241.36 17.1094C241.766 17.1406 242.266 17.2969 242.86 17.5781C243.485 17.8594 244.078 18.2812 244.641 18.8438C245.235 19.4062 245.735 20.125 246.141 21C246.547 21.8438 246.75 22.875 246.75 24.0938C246.75 24.3438 246.735 24.6562 246.703 25.0312C246.672 25.375 246.641 25.6719 246.61 25.9219C247.328 25.6406 248.078 25.2969 248.86 24.8906C249.641 24.4844 250.391 24.0625 251.11 23.625C251.86 23.1562 252.547 22.6875 253.172 22.2188C253.797 21.75 254.297 21.3281 254.672 20.9531C254.985 20.6719 255.25 20.5156 255.469 20.4844C255.688 20.4531 255.844 20.5156 255.938 20.6719C256.032 20.8281 256.047 21.0469 255.985 21.3281C255.922 21.6094 255.75 21.9219 255.469 22.2656C255.313 22.4531 254.907 22.8281 254.25 23.3906C253.625 23.9531 252.875 24.5625 252 25.2188C251.125 25.875 250.172 26.5156 249.141 27.1406C248.11 27.7656 247.125 28.2344 246.188 28.5469ZM238.266 21.4219C238.172 21.7031 238.125 22 238.125 22.3125C238.125 22.8125 238.157 23.3438 238.219 23.9062C238.282 24.4375 238.438 24.9219 238.688 25.3594C238.938 25.7969 239.328 26.1719 239.86 26.4844C240.422 26.7656 241.188 26.9062 242.157 26.9062C242.313 26.9062 242.469 26.9062 242.625 26.9062C242.782 26.875 242.938 26.8438 243.094 26.8125C243.188 26.4062 243.266 26.0469 243.328 25.7344C243.422 25.3906 243.469 25.0938 243.469 24.8438C243.532 24.25 243.532 23.6406 243.469 23.0156C243.407 22.3906 243.282 21.8281 243.094 21.3281C242.938 20.7969 242.719 20.375 242.438 20.0625C242.188 19.7188 241.875 19.5469 241.5 19.5469C240.907 19.5469 240.328 19.7188 239.766 20.0625C239.235 20.375 238.735 20.8281 238.266 21.4219ZM235.266 29.6719C235.266 30.2344 235.297 30.7969 235.36 31.3594C235.422 31.8906 235.547 32.375 235.735 32.8125C235.922 33.2188 236.172 33.5625 236.485 33.8438C236.797 34.0938 237.203 34.2188 237.703 34.2188C238.266 34.2188 238.782 34.0938 239.25 33.8438C239.719 33.5625 240.141 33.2188 240.516 32.8125C240.891 32.375 241.219 31.8906 241.5 31.3594C241.813 30.7969 242.078 30.2188 242.297 29.625C242.078 29.6562 241.86 29.6875 241.641 29.7188C241.453 29.7188 241.235 29.7188 240.985 29.7188C239.797 29.7188 238.766 29.375 237.891 28.6875C237.047 27.9688 236.391 27.0625 235.922 25.9688C235.735 26.625 235.578 27.2656 235.453 27.8906C235.328 28.5156 235.266 29.1094 235.266 29.6719ZM260.074 32.4375C260.887 32.3125 261.527 32.3906 261.996 32.6719C262.496 32.9219 262.715 33.4062 262.652 34.125C262.621 34.5312 262.449 34.9219 262.137 35.2969C261.855 35.6406 261.496 35.9531 261.058 36.2344C260.652 36.5156 260.215 36.7344 259.746 36.8906C259.277 37.0469 258.871 37.125 258.527 37.125C257.902 37.125 257.355 36.9844 256.887 36.7031C256.387 36.4219 256.168 35.9688 256.23 35.3438C256.262 34.9375 256.402 34.5781 256.652 34.2656C256.871 33.9219 257.168 33.625 257.543 33.375C257.887 33.125 258.277 32.9219 258.715 32.7656C259.183 32.6094 259.637 32.5 260.074 32.4375Z" fill="#2E2E2E"/>
</g>
<defs>
<filter id="filter0_d" x="0.269653" y="0.390137" width="266.393" height="52.7639" filterUnits="userSpaceOnUse" color-interpolation-filters="sRGB">
<feFlood flood-opacity="0" result="BackgroundImageFix"/>
<feColorMatrix in="SourceAlpha" type="matrix" values="0 0 0 0 0 0 0 0 0 0 0 0 0 0 0 0 0 0 127 0"/>
<feOffset dy="4"/>
<feGaussianBlur stdDeviation="2"/>
<feColorMatrix type="matrix" values="0 0 0 0 0 0 0 0 0 0 0 0 0 0 0 0 0 0 0.12 0"/>
<feBlend mode="normal" in2="BackgroundImageFix" result="effect1_dropShadow"/>
<feBlend mode="normal" in="SourceGraphic" in2="effect1_dropShadow" result="shape"/>
</filter>
</defs>
</svg>
