<svg width="149" height="33" viewBox="0 0 149 33" fill="none" xmlns="http://www.w3.org/2000/svg">
<g opacity="0.95" filter="url(#filter0_d)">
<path d="M7.46574 24.748C6.80559 24.765 6.26392 24.6465 5.84074 24.3926C5.40064 24.1387 5.0621 23.7663 4.82512 23.2754C4.57121 22.8014 4.41041 22.2174 4.3427 21.5234C4.27499 20.8464 4.27499 20.1016 4.3427 19.2891C4.42733 18.6628 4.57968 18.0111 4.79973 17.334C4.98593 16.7585 5.27369 16.1237 5.66301 15.4297C6.03541 14.7357 6.54322 14.0586 7.18645 13.3984C7.32186 13.4323 7.43189 13.4746 7.51653 13.5254C7.60116 13.5592 7.66887 13.6016 7.71965 13.6523C7.77043 13.7201 7.80429 13.7793 7.82121 13.8301C7.85507 14.0163 7.80429 14.2279 7.66887 14.4648C7.53345 14.7018 7.39804 14.9557 7.26262 15.2266C6.89022 16.0052 6.61093 16.7415 6.42473 17.4355C6.23853 18.1296 6.12004 18.7728 6.06926 19.3652C6.03541 19.873 6.04387 20.3301 6.09465 20.7363C6.1285 21.1595 6.18775 21.515 6.27238 21.8027C6.35702 22.1074 6.45012 22.3359 6.55168 22.4883C6.65324 22.6576 6.74634 22.7422 6.83098 22.7422C6.91561 22.7422 7.00025 22.6829 7.08488 22.5645C7.18645 22.446 7.27955 22.3021 7.36418 22.1328C7.46574 21.9635 7.58423 21.7012 7.71965 21.3457C7.85507 21.0072 7.99895 20.6094 8.15129 20.1523C8.30363 19.6953 8.44751 19.2044 8.58293 18.6797C8.73528 18.138 8.87069 17.5964 8.98918 17.0547C9.22616 15.9714 9.48007 14.7526 9.7509 13.3984C10.0217 12.0273 10.4195 10.597 10.9443 9.10742C11.1135 8.48112 11.3251 7.79557 11.579 7.05078C11.7822 6.40755 12.0361 5.66276 12.3407 4.81641C12.6624 3.95312 13.0263 3.02214 13.4325 2.02344C13.4325 1.9388 13.5002 1.86263 13.6357 1.79492C13.788 1.71029 13.9573 1.62565 14.1435 1.54102C14.3466 1.45638 14.5751 1.37174 14.829 1.28711C15.1676 1.16862 15.4299 1.10091 15.6161 1.08398C15.8193 1.06706 15.9716 1.09245 16.0732 1.16016C16.1747 1.22786 16.2424 1.32096 16.2763 1.43945C16.3101 1.54102 16.3271 1.65951 16.3271 1.79492C16.3609 2.35352 16.3779 2.87826 16.3779 3.36914C16.3948 3.86003 16.4117 4.29167 16.4286 4.66406C16.4456 5.10417 16.454 5.50195 16.454 5.85742C16.471 6.33138 16.4456 6.96615 16.3779 7.76172C16.3101 8.54036 16.234 9.36133 16.1493 10.2246C16.0816 11.0879 16.0139 11.9342 15.9462 12.7637C15.8954 13.5762 15.887 14.2533 15.9208 14.7949C15.9208 15.0827 15.9293 15.3535 15.9462 15.6074C15.9801 15.8444 16.0139 16.0814 16.0478 16.3184C16.2678 15.709 16.5133 15.0742 16.7841 14.4141C17.0549 13.737 17.3258 13.0938 17.5966 12.4844C17.8674 11.8581 18.1213 11.2826 18.3583 10.7578C18.5953 10.2161 18.7815 9.76758 18.9169 9.41211C19.12 8.93815 19.3909 8.33724 19.7294 7.60938C20.068 6.88151 20.4065 6.15365 20.745 5.42578C21.1005 4.69792 21.4221 4.0293 21.7099 3.41992C22.0146 2.81055 22.2346 2.38737 22.37 2.15039C22.4716 1.98112 22.6409 1.82878 22.8779 1.69336C23.1318 1.55794 23.3941 1.43945 23.665 1.33789C23.9527 1.23633 24.2151 1.16862 24.4521 1.13477C24.706 1.08398 24.8752 1.07552 24.9599 1.10938C25.1799 1.16016 25.3323 1.22786 25.4169 1.3125C25.5185 1.39714 25.5777 1.45638 25.5947 1.49023C25.6285 1.55794 25.6539 1.67643 25.6708 1.8457C25.6877 1.99805 25.6793 2.24349 25.6454 2.58203C25.6116 2.98828 25.51 3.60612 25.3407 4.43555C25.1884 5.26497 24.9937 6.21289 24.7568 7.2793C24.5367 8.32878 24.2913 9.45443 24.0204 10.6562C23.7665 11.8581 23.5211 13.043 23.2841 14.2109C23.0471 15.362 22.8355 16.4453 22.6493 17.4609C22.4801 18.4766 22.37 19.3314 22.3193 20.0254C22.2854 20.804 22.3362 21.4896 22.4716 22.082C22.5224 22.3359 22.5986 22.5814 22.7001 22.8184C22.8017 23.0553 22.9371 23.2585 23.1064 23.4277C23.2756 23.6139 23.4788 23.7493 23.7157 23.834C23.9527 23.9186 24.232 23.944 24.5536 23.9102C24.1305 24.1979 23.7157 24.4095 23.3095 24.5449C22.9032 24.6803 22.5055 24.748 22.1161 24.748C21.693 24.765 21.3206 24.6973 20.9989 24.5449C20.6773 24.4095 20.4065 24.2064 20.1864 23.9355C19.9664 23.6816 19.8056 23.3685 19.704 22.9961C19.6025 22.6406 19.5686 22.2428 19.6025 21.8027C19.6363 21.3965 19.7463 20.7279 19.9325 19.7969C20.1187 18.8659 20.3388 17.8164 20.5927 16.6484C20.8635 15.4635 21.1513 14.2363 21.456 12.9668C21.7776 11.6803 22.0738 10.4785 22.3447 9.36133C22.6324 8.22721 22.8779 7.25391 23.081 6.44141C23.2841 5.62891 23.4111 5.0957 23.4618 4.8418C23.4957 4.63867 23.5211 4.45247 23.538 4.2832C23.5719 4.09701 23.6057 3.9362 23.6396 3.80078C23.4703 4.13932 23.2587 4.54557 23.0048 5.01953C22.7678 5.49349 22.5139 6.0013 22.2431 6.54297C21.9723 7.08464 21.693 7.65169 21.4052 8.24414C21.1344 8.81966 20.872 9.37826 20.6181 9.91992C20.1949 10.8001 19.7802 11.7057 19.3739 12.6367C18.9677 13.5508 18.6038 14.4225 18.2822 15.252C17.9605 16.0814 17.6897 16.8262 17.4697 17.4863C17.2665 18.1465 17.148 18.6543 17.1142 19.0098V19.3652C17.1142 19.4668 17.1142 19.5853 17.1142 19.7207C17.1311 19.8561 17.1565 19.9831 17.1904 20.1016L16.1747 20.8887C16.0224 20.9395 15.887 20.9818 15.7685 21.0156C15.6669 21.0495 15.5654 21.0664 15.4638 21.0664C15.0745 21.0664 14.7782 20.8633 14.5751 20.457C14.372 20.0846 14.1858 19.3568 14.0165 18.2734C13.8473 17.1901 13.7965 15.8613 13.8642 14.2871C13.898 13.5085 13.9488 12.7214 14.0165 11.9258C14.1012 11.1302 14.1773 10.3685 14.245 9.64062C14.3297 8.91276 14.4058 8.23568 14.4736 7.60938C14.5413 6.96615 14.5751 6.41602 14.5751 5.95898C14.592 5.62044 14.5836 5.31576 14.5497 5.04492C14.5159 4.75716 14.482 4.49479 14.4482 4.25781C14.2958 4.64714 14.1266 5.18034 13.9404 5.85742C13.7542 6.51758 13.5595 7.25391 13.3564 8.06641C13.1532 8.87891 12.9417 9.73372 12.7216 10.6309C12.5185 11.528 12.3154 12.3913 12.1122 13.2207C11.926 14.0501 11.7483 14.8203 11.579 15.5312C11.4098 16.2253 11.2743 16.7839 11.1728 17.207C11.0035 17.8841 10.8342 18.6543 10.665 19.5176C10.4957 20.3809 10.2841 21.1934 10.0302 21.9551C9.77629 22.7337 9.44621 23.3854 9.03996 23.9102C8.63371 24.4518 8.10897 24.7311 7.46574 24.748ZM42.4855 14.9473C42.2485 15.2858 41.9438 15.709 41.5714 16.2168C41.1991 16.7077 40.8097 17.207 40.4035 17.7148C40.0142 18.2057 39.6248 18.6628 39.2355 19.0859C38.8631 19.4922 38.55 19.7799 38.2961 19.9492C38.1268 20.0508 37.9321 20.1354 37.7121 20.2031C37.492 20.2708 37.2635 20.3132 37.0265 20.3301C36.8065 20.347 36.5949 20.3301 36.3918 20.2793C36.1886 20.2454 36.0109 20.1777 35.8586 20.0762C35.7062 19.9577 35.5793 19.7884 35.4777 19.5684C35.3931 19.3822 35.3084 19.1367 35.2238 18.832C35.1561 18.5273 35.1307 18.1465 35.1476 17.6895C34.7414 18.3665 34.2928 18.8913 33.8019 19.2637C33.311 19.6191 32.8455 19.8815 32.4054 20.0508C31.8976 20.237 31.3898 20.347 30.882 20.3809C30.645 20.3809 30.3911 20.2962 30.1203 20.127C29.8494 19.9746 29.6209 19.7292 29.4347 19.3906C29.2485 19.0352 29.13 18.5866 29.0793 18.0449C29.0285 17.4863 29.0962 16.8262 29.2824 16.0645C29.5194 15.0319 29.8918 14.0924 30.3996 13.2461C30.9243 12.3997 31.4914 11.6803 32.1007 11.0879C32.7101 10.4785 33.311 10.0215 33.9035 9.7168C34.4959 9.41211 34.9868 9.27669 35.3761 9.31055C35.8332 9.39518 36.2056 9.5306 36.4933 9.7168C36.7303 9.88607 36.8826 10.14 36.9504 10.4785C37.035 10.8001 36.8996 11.2318 36.5441 11.7734C36.7811 11.7227 36.9757 11.6888 37.1281 11.6719C37.2974 11.6549 37.4243 11.6465 37.5089 11.6465C37.6105 11.6465 37.6782 11.6549 37.7121 11.6719C37.729 11.7057 37.7375 11.7819 37.7375 11.9004C37.7375 12.002 37.7121 12.1966 37.6613 12.4844C37.6105 12.7721 37.5343 13.1615 37.4328 13.6523C37.3312 14.1432 37.1958 14.778 37.0265 15.5566C36.9927 15.709 36.9588 15.8529 36.925 15.9883C36.908 16.1068 36.8826 16.2337 36.8488 16.3691C36.8319 16.4876 36.8065 16.6315 36.7726 16.8008C36.7388 16.9701 36.6964 17.1816 36.6457 17.4355C36.6287 17.5879 36.6203 17.7572 36.6203 17.9434C36.6372 18.1126 36.6711 18.2734 36.7218 18.4258C36.7726 18.5781 36.8488 18.7051 36.9504 18.8066C37.0688 18.8913 37.2297 18.9336 37.4328 18.9336C37.602 18.9336 37.8221 18.832 38.0929 18.6289C38.3638 18.4089 38.6515 18.138 38.9562 17.8164C39.2609 17.4779 39.5741 17.1139 39.8957 16.7246C40.2342 16.3184 40.5474 15.929 40.8351 15.5566C41.1229 15.1842 41.3768 14.8542 41.5968 14.5664C41.8338 14.2786 42.0031 14.0671 42.1047 13.9316C42.2401 13.7793 42.3755 13.6947 42.5109 13.6777C42.6463 13.6439 42.7479 13.6777 42.8156 13.7793C42.8833 13.8809 42.8918 14.0332 42.841 14.2363C42.8071 14.4395 42.6886 14.6764 42.4855 14.9473ZM35.0461 16.0645C35.1307 15.7259 35.2323 15.3281 35.3507 14.8711C35.4692 14.4141 35.5708 13.974 35.6554 13.5508C35.7401 13.1276 35.7993 12.7806 35.8332 12.5098C35.8839 12.222 35.8755 12.0866 35.8078 12.1035C35.7231 12.1204 35.63 12.1458 35.5285 12.1797C35.4438 12.2135 35.3338 12.2389 35.1984 12.2559C35.063 12.2728 34.9276 12.2982 34.7922 12.332C34.9276 12.0612 35.0037 11.8411 35.0207 11.6719C35.0545 11.4857 35.063 11.3418 35.0461 11.2402C35.0291 11.1217 34.9953 11.0286 34.9445 10.9609C34.7583 10.8086 34.4282 10.9355 33.9543 11.3418C33.4972 11.7311 32.964 12.459 32.3547 13.5254C32.1007 13.9655 31.8976 14.4395 31.7453 14.9473C31.5929 15.4382 31.4829 15.9036 31.4152 16.3438C31.3644 16.7839 31.356 17.1732 31.3898 17.5117C31.4237 17.8333 31.4914 18.0449 31.5929 18.1465C31.7791 18.3327 31.9907 18.4258 32.2277 18.4258C32.4647 18.4089 32.7017 18.3411 32.9386 18.2227C33.1925 18.0872 33.438 17.918 33.675 17.7148C33.9289 17.5117 34.1489 17.3001 34.3351 17.0801C34.5382 16.86 34.6991 16.6569 34.8175 16.4707C34.953 16.2845 35.0291 16.1491 35.0461 16.0645ZM55.39 16.6484C54.6791 17.5456 54.0443 18.2565 53.4857 18.7812C52.9441 19.2891 52.4617 19.6699 52.0385 19.9238C51.6153 20.1777 51.2429 20.3385 50.9213 20.4062C50.5997 20.474 50.3119 20.5078 50.058 20.5078C49.7364 20.5078 49.4656 20.4316 49.2455 20.2793C49.0255 20.127 48.8393 19.9408 48.6869 19.7207C48.5346 19.5007 48.4161 19.2721 48.3314 19.0352C48.2468 18.7982 48.1791 18.5951 48.1283 18.4258C48.0606 18.2396 47.9844 18.028 47.8998 17.791C47.8321 17.554 47.7559 17.2917 47.6713 17.0039C47.3327 17.3594 46.9773 17.7402 46.6049 18.1465C46.2833 18.485 45.9193 18.8743 45.5131 19.3145C45.1068 19.7376 44.6921 20.1693 44.2689 20.6094C44.1166 20.6432 43.9812 20.6432 43.8627 20.6094C43.7442 20.5755 43.6426 20.5417 43.558 20.5078C43.4564 20.457 43.3718 20.3978 43.3041 20.3301C43.2533 20.2793 43.2025 20.2201 43.1518 20.1523C43.1179 20.1016 43.0841 20.0423 43.0502 19.9746C42.9994 19.89 42.9825 19.8053 42.9994 19.7207C43.4903 19.1621 43.9727 18.612 44.4467 18.0703C44.9376 17.5117 45.3777 17.0124 45.767 16.5723C46.2071 16.0645 46.6303 15.5736 47.0365 15.0996C46.7995 14.4564 46.588 13.8555 46.4018 13.2969C46.2156 12.7383 46.0801 12.3405 45.9955 12.1035C45.8262 11.6126 45.6739 11.2064 45.5385 10.8848C45.42 10.5632 45.2084 10.3346 44.9037 10.1992C45.1068 10.013 45.3015 9.86914 45.4877 9.76758C45.6908 9.64909 45.8686 9.56445 46.0209 9.51367C46.2071 9.44596 46.3679 9.41211 46.5033 9.41211C46.8926 9.41211 47.2312 9.75911 47.5189 10.4531C47.8236 11.1302 48.1283 12.0697 48.433 13.2715C48.433 13.3223 48.4499 13.3815 48.4838 13.4492C48.8393 13.026 49.1778 12.6283 49.4994 12.2559C49.838 11.8835 50.1257 11.5534 50.3627 11.2656C50.6166 10.9779 50.8197 10.7493 50.9721 10.5801C51.1244 10.4108 51.2175 10.3092 51.2514 10.2754C51.5899 9.88607 51.8946 9.66602 52.1654 9.61523C52.4363 9.56445 52.6817 9.6237 52.9018 9.79297C53.0033 9.86068 53.1133 9.92839 53.2318 9.99609C53.4519 10.1315 53.7143 10.2585 54.0189 10.377C53.7312 10.6478 53.4096 10.9609 53.0541 11.3164C52.7156 11.6549 52.3939 11.985 52.0893 12.3066C51.7338 12.679 51.3783 13.0514 51.0229 13.4238C50.7689 13.6777 50.4643 13.9909 50.1088 14.3633C49.7702 14.7357 49.4063 15.1419 49.017 15.582C49.1355 16.0052 49.2624 16.403 49.3979 16.7754C49.5333 17.1478 49.6687 17.4779 49.8041 17.7656C49.9564 18.0534 50.1088 18.2819 50.2611 18.4512C50.4135 18.6204 50.5743 18.7051 50.7436 18.7051C51.0144 18.7051 51.3191 18.6374 51.6576 18.502C51.9962 18.3496 52.3516 18.1465 52.724 17.8926C53.0964 17.6387 53.4688 17.3424 53.8412 17.0039C54.2305 16.6654 54.6114 16.3099 54.9838 15.9375C55.1192 15.8021 55.2462 15.7259 55.3647 15.709C55.5001 15.6921 55.5932 15.7174 55.6439 15.7852C55.6947 15.8529 55.7032 15.9629 55.6693 16.1152C55.6524 16.2676 55.5593 16.4453 55.39 16.6484ZM67.5075 8.3457C67.4905 8.29492 67.5413 8.16797 67.6598 7.96484C67.7783 7.74479 67.9052 7.48242 68.0407 7.17773C68.193 6.85612 68.3369 6.50065 68.4723 6.11133C68.6246 5.70508 68.7262 5.29036 68.777 4.86719C68.8447 4.44401 68.8447 4.02083 68.777 3.59766C68.7093 3.17448 68.5316 2.76823 68.2438 2.37891C68.0745 2.17578 67.8206 2.06576 67.4821 2.04883C67.1605 2.01497 66.7881 2.06576 66.3649 2.20117C65.9586 2.31966 65.527 2.51432 65.07 2.78516C64.6299 3.03906 64.2236 3.34375 63.8512 3.69922C63.4788 4.03776 63.1572 4.41862 62.8864 4.8418C62.6325 5.26497 62.4886 5.69661 62.4547 6.13672C62.4209 6.49219 62.4293 6.82227 62.4801 7.12695C62.5478 7.43164 62.6325 7.71094 62.734 7.96484C62.8356 8.21875 62.9456 8.45573 63.0641 8.67578C63.1826 8.89583 63.2926 9.09049 63.3942 9.25977C63.5296 9.49674 63.7412 9.75911 64.0289 10.0469C64.3167 10.3346 64.6299 10.6647 64.9684 11.0371C65.3069 11.3926 65.6455 11.7988 65.984 12.2559C66.3226 12.7129 66.6188 13.2292 66.8727 13.8047C67.1266 14.3802 67.3043 15.0234 67.4059 15.7344C67.5075 16.4453 67.499 17.2324 67.3805 18.0957C67.1943 19.3483 66.8981 20.3893 66.4918 21.2188C66.0856 22.0651 65.637 22.7422 65.1461 23.25C64.6722 23.7578 64.1898 24.1217 63.6989 24.3418C63.208 24.5788 62.8017 24.7311 62.4801 24.7988C62.2262 24.8496 61.9215 24.8919 61.5661 24.9258C61.2275 24.9766 60.8636 24.9681 60.4743 24.9004C60.1019 24.8496 59.721 24.7311 59.3317 24.5449C58.9424 24.3757 58.5954 24.1048 58.2907 23.7324C57.9352 23.3092 57.6559 22.8522 57.4528 22.3613C57.2666 21.9382 57.1312 21.4473 57.0465 20.8887C56.945 20.347 56.9873 19.7799 57.1735 19.1875C57.3089 19.0352 57.4528 18.8997 57.6051 18.7812C57.7575 18.6628 57.9098 18.5612 58.0621 18.4766C58.2314 18.375 58.4092 18.2819 58.5954 18.1973C58.8154 18.1296 59.0355 18.0703 59.2555 18.0195C59.4417 17.9857 59.6364 17.9688 59.8395 17.9688C60.0595 17.9518 60.2627 17.9772 60.4489 18.0449C60.195 18.3327 60.0172 18.6035 59.9157 18.8574C59.848 18.9928 59.7972 19.1113 59.7633 19.2129C59.6956 19.5345 59.6702 19.9154 59.6871 20.3555C59.721 20.8125 59.8141 21.2441 59.9664 21.6504C60.1357 22.0736 60.3727 22.429 60.6774 22.7168C60.9821 23.0215 61.3883 23.1823 61.8961 23.1992C63.1318 23.2331 64.1813 22.2682 65.0446 20.3047C65.3323 19.6953 65.4762 19.0775 65.4762 18.4512C65.4931 17.8249 65.417 17.224 65.2477 16.6484C65.0954 16.0729 64.8838 15.5397 64.6129 15.0488C64.359 14.541 64.0967 14.1094 63.8258 13.7539C63.555 13.3984 63.2249 13.0176 62.8356 12.6113C62.4632 12.1882 62.0908 11.7311 61.7184 11.2402C61.346 10.7493 61.0075 10.2161 60.7028 9.64062C60.415 9.0651 60.2204 8.4388 60.1188 7.76172C59.9834 6.8138 60.068 5.95052 60.3727 5.17188C60.6943 4.3763 61.1175 3.68229 61.6422 3.08984C62.1839 2.4974 62.7679 2.01497 63.3942 1.64258C64.0374 1.27018 64.6045 1.0332 65.0954 0.931641C67.8206 0.389974 69.6064 0.847005 70.4528 2.30273C70.8082 2.86133 71.0029 3.45378 71.0368 4.08008C71.0706 4.70638 71.0283 5.29036 70.9098 5.83203C70.8082 6.35677 70.6728 6.80534 70.5036 7.17773C70.3512 7.5332 70.2496 7.72786 70.1989 7.76172C70.0973 7.86328 69.9365 7.97331 69.7164 8.0918C69.4964 8.21029 69.1409 8.32031 68.65 8.42188C68.5146 8.45573 68.3792 8.47266 68.2438 8.47266C68.1253 8.47266 67.9983 8.46419 67.8629 8.44727C67.7275 8.43034 67.609 8.39648 67.5075 8.3457ZM83.4081 13.5762C83.4758 13.4746 83.5604 13.4154 83.662 13.3984C83.7805 13.3646 83.8736 13.373 83.9413 13.4238C84.009 13.4746 84.0429 13.5592 84.0429 13.6777C84.0598 13.7962 84.0175 13.957 83.9159 14.1602C83.5774 14.8034 83.1288 15.4974 82.5702 16.2422C82.0285 16.987 81.453 17.6895 80.8436 18.3496C80.2343 18.9928 79.6418 19.526 79.0663 19.9492C78.4908 20.3724 78.0083 20.584 77.619 20.584C77.0604 20.584 76.5949 20.474 76.2225 20.2539C75.8501 20.0339 75.5539 19.763 75.3339 19.4414C75.1307 19.1198 74.9869 18.7728 74.9022 18.4004C74.8176 18.0111 74.7922 17.6556 74.8261 17.334C74.843 17.0632 74.9022 16.5807 75.0038 15.8867C75.1054 15.1758 75.2408 14.3633 75.41 13.4492C75.5793 12.5182 75.7655 11.528 75.9686 10.4785C76.1887 9.41211 76.4172 8.38802 76.6542 7.40625C76.3664 7.4401 76.0787 7.47396 75.7909 7.50781C75.5031 7.54167 75.2408 7.55859 75.0038 7.55859C74.4621 7.55859 73.9543 7.49935 73.4804 7.38086C72.9895 7.24544 72.6255 7.11849 72.3886 7C72.2531 6.93229 72.1939 6.83919 72.2108 6.7207C72.2278 6.58529 72.2785 6.45833 72.3632 6.33984C72.4478 6.20443 72.5578 6.0944 72.6932 6.00977C72.8117 5.9082 72.9218 5.85742 73.0233 5.85742C73.3449 5.89128 73.6919 5.92513 74.0643 5.95898C74.4367 5.97591 74.843 5.97591 75.2831 5.95898C75.6047 5.94206 75.9094 5.91667 76.1972 5.88281C76.5018 5.84896 76.7981 5.80664 77.0858 5.75586C77.3059 4.94336 77.5175 4.24089 77.7206 3.64844C77.9406 3.03906 78.1353 2.61589 78.3046 2.37891C78.3554 2.29427 78.4654 2.22656 78.6347 2.17578C78.8208 2.10807 79.0155 2.06576 79.2186 2.04883C79.4218 2.01497 79.6164 2.01497 79.8026 2.04883C79.9888 2.06576 80.1242 2.125 80.2089 2.22656C80.2935 2.36198 80.3274 2.70898 80.3104 3.26758C80.2935 3.82617 80.2004 4.53711 80.0311 5.40039C80.7421 5.40039 81.3684 5.44271 81.91 5.52734C82.4686 5.59505 82.9426 5.67969 83.3319 5.78125C83.7212 5.86589 84.0344 5.95898 84.2714 6.06055C84.5083 6.14518 84.6861 6.20443 84.8046 6.23828C84.9231 6.27214 84.9823 6.35677 84.9823 6.49219C84.9992 6.6276 84.9738 6.77148 84.9061 6.92383C84.8554 7.05924 84.7623 7.17773 84.6268 7.2793C84.4914 7.38086 84.3391 7.41471 84.1698 7.38086C84.0005 7.36393 83.8059 7.33008 83.5858 7.2793C83.3827 7.22852 83.1288 7.1862 82.8241 7.15234C82.5363 7.11849 82.1893 7.08464 81.7831 7.05078C81.3768 7.01693 80.9029 7 80.3612 7C80.2597 7 80.1412 7.00846 80.0057 7.02539C79.8873 7.02539 79.7603 7.02539 79.6249 7.02539C79.5572 7.29622 79.4895 7.56706 79.4218 7.83789C79.371 8.0918 79.2948 8.36263 79.1932 8.65039C78.9732 9.32747 78.7193 10.0638 78.4315 10.8594C78.1776 11.5534 77.8729 12.349 77.5175 13.2461C77.162 14.1432 76.7642 15.0996 76.3241 16.1152C76.2225 16.8431 76.231 17.4017 76.3495 17.791C76.4849 18.1634 76.6457 18.4342 76.8319 18.6035C77.052 18.7897 77.3228 18.8913 77.6444 18.9082C77.8983 18.9421 78.203 18.8574 78.5585 18.6543C78.9309 18.4342 79.3117 18.1465 79.7011 17.791C80.0904 17.4355 80.4797 17.0462 80.869 16.623C81.2753 16.1999 81.6477 15.7852 81.9862 15.3789C82.3248 14.9727 82.621 14.6087 82.8749 14.2871C83.1288 13.9486 83.3065 13.7116 83.4081 13.5762ZM88.5431 20.4062C87.8999 20.4062 87.3751 20.3047 86.9689 20.1016C86.5626 19.8984 86.241 19.653 86.004 19.3652C85.784 19.0605 85.6232 18.7389 85.5216 18.4004C85.437 18.0449 85.3947 17.7233 85.3947 17.4355C85.3947 16.9277 85.437 16.3945 85.5216 15.8359C85.6062 15.2604 85.7078 14.7357 85.8263 14.2617C85.9448 13.7708 86.0463 13.3561 86.131 13.0176C86.2325 12.679 86.3003 12.4674 86.3341 12.3828C86.4865 11.8919 86.6811 11.4688 86.9181 11.1133C87.172 10.7409 87.519 10.487 87.9591 10.3516C88.1284 10.3177 88.3061 10.2839 88.4923 10.25C88.6447 10.2331 88.797 10.2246 88.9493 10.2246C89.1186 10.2246 89.271 10.25 89.4064 10.3008C88.9493 11.4688 88.5854 12.4421 88.3146 13.2207C88.0607 13.9993 87.866 14.6341 87.7306 15.125C87.5782 15.6836 87.4851 16.1322 87.4513 16.4707C87.3667 17.2324 87.4344 17.8079 87.6544 18.1973C87.8745 18.5866 88.323 18.7812 89.0001 18.7812C89.4402 18.7812 89.8634 18.6204 90.2697 18.2988C90.6759 17.9603 91.0483 17.5286 91.3868 17.0039C91.3361 16.7331 91.3107 16.4538 91.3107 16.166C91.3107 15.6243 91.353 15.0996 91.4376 14.5918C91.5392 14.0671 91.6492 13.5846 91.7677 13.1445C91.9031 12.6875 92.0385 12.2812 92.174 11.9258C92.3263 11.5703 92.4532 11.291 92.5548 11.0879C92.741 10.6816 92.9103 10.4362 93.0626 10.3516C93.215 10.25 93.4604 10.1908 93.799 10.1738C93.9344 10.1569 94.0444 10.1569 94.129 10.1738C94.2306 10.1738 94.3152 10.1823 94.3829 10.1992C94.5861 10.25 94.6876 10.3516 94.6876 10.5039C94.6876 10.7747 94.6707 11.181 94.6368 11.7227C94.603 12.2643 94.5014 12.8229 94.3322 13.3984C94.2137 13.8724 94.0952 14.2786 93.9767 14.6172C93.8751 14.9388 93.7736 15.2181 93.672 15.4551C93.5704 15.6751 93.4689 15.8613 93.3673 16.0137C93.2657 16.1491 93.1726 16.276 93.088 16.3945C93.1219 16.9023 93.1642 17.3086 93.215 17.6133C93.2657 17.918 93.325 18.1549 93.3927 18.3242C93.4773 18.4766 93.5704 18.5866 93.672 18.6543C93.7905 18.7051 93.9174 18.7305 94.0529 18.7305C94.2898 18.7305 94.5691 18.6204 94.8907 18.4004C95.2124 18.1634 95.5424 17.8757 95.881 17.5371C96.2365 17.1816 96.5835 16.8008 96.922 16.3945C97.2775 15.9714 97.5991 15.5736 97.8868 15.2012C98.1746 14.8288 98.42 14.5072 98.6232 14.2363C98.8263 13.9486 98.9532 13.7708 99.004 13.7031C99.1225 13.5508 99.2325 13.4577 99.3341 13.4238C99.4526 13.39 99.5457 13.4069 99.6134 13.4746C99.6811 13.5254 99.715 13.6185 99.715 13.7539C99.7319 13.8724 99.698 14.0078 99.6134 14.1602C99.2749 14.8034 98.8517 15.4889 98.3439 16.2168C97.853 16.9277 97.3198 17.5879 96.7443 18.1973C96.1857 18.8066 95.6186 19.3145 95.0431 19.7207C94.4676 20.127 93.9259 20.3301 93.4181 20.3301C92.9611 20.3301 92.5971 20.1777 92.3263 19.873C92.0724 19.5514 91.8523 19.0944 91.6661 18.502C91.2768 19.1113 90.8198 19.5853 90.295 19.9238C89.7703 20.2454 89.1863 20.4062 88.5431 20.4062ZM109.166 15.1504C109.082 15.6751 108.997 16.1745 108.912 16.6484C108.845 17.1224 108.802 17.5033 108.786 17.791C108.769 18.2142 108.845 18.5189 109.014 18.7051C109.183 18.8913 109.369 18.9844 109.573 18.9844C109.81 18.9844 110.097 18.8659 110.436 18.6289C110.791 18.3919 111.164 18.0957 111.553 17.7402C111.942 17.3848 112.332 16.9954 112.721 16.5723C113.11 16.1491 113.466 15.7513 113.787 15.3789C114.126 14.9896 114.405 14.651 114.625 14.3633C114.862 14.0755 115.023 13.8893 115.108 13.8047C115.209 13.7031 115.311 13.6439 115.412 13.627C115.531 13.61 115.624 13.627 115.692 13.6777C115.759 13.7285 115.793 13.8216 115.793 13.957C115.793 14.0924 115.726 14.2617 115.59 14.4648C115.387 14.7865 115.125 15.1673 114.803 15.6074C114.481 16.0306 114.126 16.4707 113.737 16.9277C113.347 17.3848 112.933 17.8333 112.493 18.2734C112.069 18.7135 111.638 19.1029 111.198 19.4414C110.774 19.7799 110.36 20.0508 109.953 20.2539C109.564 20.474 109.209 20.584 108.887 20.584C108.65 20.584 108.422 20.5163 108.202 20.3809C107.998 20.2454 107.812 20.0677 107.643 19.8477C107.474 19.6276 107.338 19.3822 107.237 19.1113C107.152 18.8405 107.118 18.5697 107.135 18.2988C107.152 18.1803 107.177 17.9772 107.211 17.6895C106.5 18.485 105.781 19.1198 105.053 19.5938C104.342 20.0508 103.657 20.2793 102.996 20.2793C102.759 20.2793 102.506 20.2201 102.235 20.1016C101.964 19.9831 101.718 19.7884 101.498 19.5176C101.295 19.2467 101.126 18.8913 100.991 18.4512C100.855 18.0111 100.804 17.4779 100.838 16.8516C100.889 15.8698 101.084 14.9388 101.422 14.0586C101.761 13.1784 102.184 12.4167 102.692 11.7734C103.216 11.1133 103.8 10.597 104.444 10.2246C105.104 9.83529 105.764 9.64062 106.424 9.64062C106.712 9.64062 106.974 9.7168 107.211 9.86914C107.448 10.0046 107.651 10.1908 107.821 10.4277C107.99 10.6478 108.125 10.8932 108.227 11.1641C108.345 11.4349 108.43 11.6888 108.481 11.9258C108.599 11.4349 108.709 10.9525 108.811 10.4785C108.912 10.0046 109.014 9.55599 109.116 9.13281C109.285 8.50651 109.463 7.82943 109.649 7.10156C109.818 6.47526 110.013 5.75586 110.233 4.94336C110.453 4.13086 110.698 3.27604 110.969 2.37891C111.138 2.24349 111.299 2.14193 111.452 2.07422C111.604 2.00651 111.748 1.95573 111.883 1.92188C112.036 1.87109 112.179 1.8457 112.315 1.8457C112.484 1.8457 112.636 1.87109 112.772 1.92188C112.907 1.95573 113.017 2.06576 113.102 2.25195C113.203 2.42122 113.271 2.68359 113.305 3.03906C113.339 3.39453 113.339 3.87695 113.305 4.48633C113.271 5.23112 113.136 6.04362 112.899 6.92383C112.679 7.80404 112.383 8.7181 112.01 9.66602C111.638 10.597 111.206 11.5365 110.715 12.4844C110.241 13.4154 109.725 14.304 109.166 15.1504ZM107.668 15.4805C107.736 15.1589 107.795 14.8372 107.846 14.5156C107.914 14.194 107.99 13.8639 108.075 13.5254C108.041 13.5423 108.007 13.5592 107.973 13.5762C107.956 13.5931 107.931 13.61 107.897 13.627C107.711 13.7116 107.584 13.7116 107.516 13.627C107.448 13.5254 107.414 13.373 107.414 13.1699C107.414 13.0684 107.406 12.8906 107.389 12.6367C107.372 12.3659 107.321 12.0951 107.237 11.8242C107.169 11.5365 107.059 11.291 106.907 11.0879C106.754 10.8678 106.543 10.7578 106.272 10.7578C105.883 10.7578 105.485 10.9609 105.078 11.3672C104.672 11.7565 104.291 12.2389 103.936 12.8145C103.58 13.373 103.284 13.974 103.047 14.6172C102.81 15.2604 102.675 15.8359 102.641 16.3438C102.607 17.1562 102.709 17.7402 102.946 18.0957C103.183 18.4512 103.504 18.6289 103.911 18.6289C104.215 18.6289 104.545 18.5104 104.901 18.2734C105.273 18.0365 105.629 17.7487 105.967 17.4102C106.323 17.0716 106.644 16.7246 106.932 16.3691C107.237 16.0137 107.482 15.7174 107.668 15.4805ZM122.756 5.04492C122.706 5.23112 122.604 5.41732 122.452 5.60352C122.316 5.77279 122.156 5.91667 121.969 6.03516C121.8 6.13672 121.622 6.20443 121.436 6.23828C121.25 6.27214 121.098 6.23828 120.979 6.13672C120.624 5.86589 120.437 5.57812 120.421 5.27344C120.404 4.95182 120.48 4.6556 120.649 4.38477C120.818 4.09701 121.03 3.86003 121.284 3.67383C121.538 3.4707 121.758 3.35221 121.944 3.31836C122.13 3.28451 122.282 3.32682 122.401 3.44531C122.536 3.54688 122.638 3.69076 122.706 3.87695C122.773 4.04622 122.807 4.24089 122.807 4.46094C122.824 4.68099 122.807 4.87565 122.756 5.04492ZM119.253 10.4531C119.337 10.3516 119.498 10.2669 119.735 10.1992C119.972 10.1315 120.217 10.0807 120.471 10.0469C120.725 9.99609 120.954 9.9707 121.157 9.9707C121.377 9.95378 121.504 9.95378 121.538 9.9707C121.555 9.98763 121.512 10.1654 121.411 10.5039C121.309 10.8424 121.182 11.2402 121.03 11.6973C120.878 12.1543 120.717 12.6283 120.547 13.1191C120.378 13.5931 120.251 13.9824 120.167 14.2871C120.082 14.5918 119.98 14.9388 119.862 15.3281C119.743 15.7005 119.633 16.0729 119.532 16.4453C119.447 16.8008 119.388 17.1393 119.354 17.4609C119.32 17.7826 119.346 18.028 119.43 18.1973C119.515 18.4004 119.608 18.5443 119.71 18.6289C119.811 18.6966 119.921 18.7305 120.04 18.7305C120.378 18.7305 120.801 18.5443 121.309 18.1719C121.834 17.7995 122.359 17.3594 122.883 16.8516C123.425 16.3268 123.924 15.8021 124.381 15.2773C124.838 14.7357 125.177 14.304 125.397 13.9824C125.532 13.8132 125.668 13.7031 125.803 13.6523C125.956 13.6016 126.074 13.61 126.159 13.6777C126.26 13.7454 126.311 13.8555 126.311 14.0078C126.328 14.1602 126.277 14.3379 126.159 14.541C125.888 15.015 125.49 15.582 124.965 16.2422C124.441 16.8854 123.882 17.5117 123.29 18.1211C122.697 18.7135 122.113 19.2214 121.538 19.6445C120.979 20.0677 120.522 20.2878 120.167 20.3047C119.879 20.3216 119.591 20.2708 119.303 20.1523C119.032 20.0508 118.779 19.9069 118.542 19.7207C118.322 19.5176 118.135 19.2891 117.983 19.0352C117.831 18.7643 117.746 18.485 117.729 18.1973C117.678 17.7741 117.678 17.1986 117.729 16.4707C117.78 15.7259 117.873 14.9727 118.008 14.2109C118.144 13.4323 118.313 12.696 118.516 12.002C118.736 11.3079 118.982 10.7917 119.253 10.4531ZM135.331 15.9629C135.162 16.6061 134.933 17.207 134.645 17.7656C134.358 18.3242 134.011 18.8066 133.604 19.2129C133.215 19.6191 132.766 19.9323 132.259 20.1523C131.768 20.3893 131.226 20.5078 130.634 20.5078C129.94 20.5078 129.389 20.3555 128.983 20.0508C128.594 19.763 128.298 19.3991 128.095 18.959C127.908 18.5189 127.798 18.0365 127.764 17.5117C127.714 16.987 127.688 16.4961 127.688 16.0391C127.688 15.7174 127.731 15.362 127.815 14.9727C127.883 14.5833 127.985 14.1855 128.12 13.7793C128.255 13.373 128.425 12.9668 128.628 12.5605C128.848 12.1543 129.102 11.7819 129.389 11.4434C129.491 11.1556 129.643 10.9017 129.847 10.6816C130.067 10.4616 130.312 10.2839 130.583 10.1484C130.871 9.99609 131.175 9.88607 131.497 9.81836C131.819 9.73372 132.132 9.69141 132.436 9.69141C132.487 9.69141 132.529 9.69987 132.563 9.7168C132.614 9.73372 132.665 9.75065 132.716 9.76758C132.936 9.78451 133.207 9.86914 133.528 10.0215C133.867 10.1738 134.188 10.4023 134.493 10.707C134.815 11.0117 135.085 11.401 135.306 11.875C135.526 12.332 135.636 12.8906 135.636 13.5508C135.636 13.6862 135.627 13.8555 135.61 14.0586C135.593 14.2448 135.576 14.4056 135.559 14.541C135.949 14.3887 136.355 14.2025 136.778 13.9824C137.201 13.7624 137.608 13.5339 137.997 13.2969C138.403 13.043 138.776 12.7891 139.114 12.5352C139.453 12.2812 139.723 12.0527 139.927 11.8496C140.096 11.6973 140.24 11.6126 140.358 11.5957C140.477 11.5788 140.561 11.6126 140.612 11.6973C140.663 11.7819 140.671 11.9004 140.638 12.0527C140.604 12.2051 140.511 12.3743 140.358 12.5605C140.274 12.6621 140.054 12.8652 139.698 13.1699C139.36 13.4746 138.953 13.8047 138.479 14.1602C138.005 14.5156 137.489 14.8626 136.931 15.2012C136.372 15.5397 135.839 15.7936 135.331 15.9629ZM131.04 12.1035C130.989 12.2559 130.964 12.4167 130.964 12.5859C130.964 12.8568 130.981 13.1445 131.014 13.4492C131.048 13.737 131.133 13.9993 131.268 14.2363C131.404 14.4733 131.615 14.6764 131.903 14.8457C132.208 14.998 132.623 15.0742 133.147 15.0742C133.232 15.0742 133.317 15.0742 133.401 15.0742C133.486 15.0573 133.57 15.0404 133.655 15.0234C133.706 14.8034 133.748 14.6087 133.782 14.4395C133.833 14.2533 133.858 14.0924 133.858 13.957C133.892 13.6354 133.892 13.3053 133.858 12.9668C133.824 12.6283 133.757 12.3236 133.655 12.0527C133.57 11.765 133.452 11.5365 133.3 11.3672C133.164 11.181 132.995 11.0879 132.792 11.0879C132.47 11.0879 132.157 11.181 131.852 11.3672C131.565 11.5365 131.294 11.7819 131.04 12.1035ZM129.415 16.5723C129.415 16.877 129.432 17.1816 129.466 17.4863C129.5 17.7741 129.567 18.0365 129.669 18.2734C129.77 18.4935 129.906 18.6797 130.075 18.832C130.244 18.9674 130.464 19.0352 130.735 19.0352C131.04 19.0352 131.319 18.9674 131.573 18.832C131.827 18.6797 132.056 18.4935 132.259 18.2734C132.462 18.0365 132.639 17.7741 132.792 17.4863C132.961 17.1816 133.105 16.8685 133.223 16.5469C133.105 16.5638 132.987 16.5807 132.868 16.5977C132.766 16.5977 132.648 16.5977 132.513 16.5977C131.869 16.5977 131.311 16.4115 130.837 16.0391C130.38 15.6497 130.024 15.1589 129.77 14.5664C129.669 14.9219 129.584 15.2689 129.516 15.6074C129.449 15.946 129.415 16.2676 129.415 16.5723ZM142.853 18.0703C143.293 18.0026 143.64 18.0449 143.894 18.1973C144.164 18.3327 144.283 18.5951 144.249 18.9844C144.232 19.2044 144.139 19.416 143.97 19.6191C143.817 19.8053 143.623 19.9746 143.386 20.127C143.166 20.2793 142.929 20.3978 142.675 20.4824C142.421 20.5671 142.201 20.6094 142.015 20.6094C141.676 20.6094 141.38 20.5332 141.126 20.3809C140.855 20.2285 140.737 19.9831 140.771 19.6445C140.788 19.4245 140.864 19.2298 140.999 19.0605C141.118 18.8743 141.278 18.7135 141.482 18.5781C141.668 18.4427 141.879 18.3327 142.116 18.248C142.37 18.1634 142.616 18.1042 142.853 18.0703Z" fill="#2E2E2E"/>
</g>
<defs>
<filter id="filter0_d" x="0.291931" y="0.711304" width="147.963" height="32.2471" filterUnits="userSpaceOnUse" color-interpolation-filters="sRGB">
<feFlood flood-opacity="0" result="BackgroundImageFix"/>
<feColorMatrix in="SourceAlpha" type="matrix" values="0 0 0 0 0 0 0 0 0 0 0 0 0 0 0 0 0 0 127 0"/>
<feOffset dy="4"/>
<feGaussianBlur stdDeviation="2"/>
<feColorMatrix type="matrix" values="0 0 0 0 0 0 0 0 0 0 0 0 0 0 0 0 0 0 0.12 0"/>
<feBlend mode="normal" in2="BackgroundImageFix" result="effect1_dropShadow"/>
<feBlend mode="normal" in="SourceGraphic" in2="effect1_dropShadow" result="shape"/>
</filter>
</defs>
</svg>
