<?xml version="1.0" encoding="iso-8859-1"?>
<!-- Generator: Adobe Illustrator 16.0.0, SVG Export Plug-In . SVG Version: 6.00 Build 0)  -->
<!DOCTYPE svg PUBLIC "-//W3C//DTD SVG 1.1//EN" "http://www.w3.org/Graphics/SVG/1.1/DTD/svg11.dtd">
<svg version="1.1" id="Capa_1" xmlns="http://www.w3.org/2000/svg" xmlns:xlink="http://www.w3.org/1999/xlink" x="0px" y="0px"
	 width="98.34px" height="98.339px" viewBox="0 0 98.34 98.339" style="enable-background:new 0 0 98.34 98.339;"
	 xml:space="preserve">
<g>
	<path d="M0,0.003v98.333h98.34V0.003H0z M21.397,15.806c3.595,0.028,8.912,0.038,12.506-0.005l-0.009,10.887l-12.519-0.002
		L21.397,15.806z M60.363,41.304l-7.228-0.003L53.07,69.238c0.012,2.802,1.299,3.988,4.104,4.084c0.288,0.011,2.896,0.011,3.185,0
		l-0.02,8.697c-4.318,0.463-9.229,0.898-13.53,0.049c-3.905-0.773-5.7-2.944-6.231-7.153c-0.186-1.463-0.276-2.931-0.276-4.409
		l0.044-29.112l-6.403-0.096l0.034,40.692H21.354L21.35,57.275l-0.026-24.69l18.969-0.005l0.033-16.781l12.719,0.003L53.029,32.63
		l7.336,0.009L60.363,41.304z M64.24,81.98V69.767c1.841,0.034,4.607,0.012,6.447,0.012c1.756,0,4.508,0.022,6.265-0.012
		l0.016,12.213C73.33,81.953,67.881,81.951,64.24,81.98z M76.962,29.537l-1.716,34.254c-2.536-0.02-6.732-0.039-9.27,0.009
		l-1.733-34.137l-0.007-13.872l12.757,0.003L76.962,29.537z"/>
</g>
<g>
</g>
<g>
</g>
<g>
</g>
<g>
</g>
<g>
</g>
<g>
</g>
<g>
</g>
<g>
</g>
<g>
</g>
<g>
</g>
<g>
</g>
<g>
</g>
<g>
</g>
<g>
</g>
<g>
</g>
</svg>
